<?xml version="1.0" standalone="no"?>
<!DOCTYPE svg PUBLIC "-//W3C//DTD SVG 20010904//EN"
 "http://www.w3.org/TR/2001/REC-SVG-20010904/DTD/svg10.dtd">
<svg version="1.0" xmlns="http://www.w3.org/2000/svg"
 width="256.000000pt" height="256.000000pt" viewBox="0 0 256.000000 256.000000"
 preserveAspectRatio="xMidYMid meet">
<metadata>
Created by potrace 1.14, written by Peter Selinger 2001-2017
</metadata>
<g transform="translate(0.000000,256.000000) scale(0.100000,-0.100000)"
fill="#000000" stroke="none">
<path d="M606 2144 c-19 -18 -18 -7 -19 -164 -3 -174 -16 -200 -146 -284 -111
-72 -137 -106 -182 -233 -45 -126 -69 -158 -140 -184 -83 -31 -93 -45 -86
-123 13 -135 64 -261 137 -338 52 -54 99 -74 197 -83 139 -12 174 -22 299 -82
76 -35 156 -104 228 -195 74 -93 147 -61 102 47 -19 44 -135 161 -214 214
-131 88 -209 117 -345 127 -40 2 -86 7 -104 10 -38 6 -88 45 -108 84 -20 38
-29 120 -16 152 15 39 4 58 -31 58 -44 0 -25 16 49 41 99 32 118 56 126 150 7
96 22 125 111 213 56 57 85 78 141 100 39 15 77 31 85 36 12 6 15 29 16 113 0
125 16 163 62 152 37 -8 144 -83 217 -149 120 -111 172 -135 199 -93 27 40 7
73 -99 163 -142 122 -392 284 -436 284 -15 0 -35 -7 -43 -16z"/>
<path d="M1492 1759 c-236 -40 -409 -216 -458 -464 -68 -354 34 -645 227 -645
51 0 133 36 166 71 66 72 113 307 88 444 -27 152 -64 268 -97 302 -25 26 -60
30 -78 8 -16 -20 -7 -80 32 -197 40 -125 48 -293 18 -384 -38 -111 -99 -153
-162 -110 -77 51 -105 153 -94 341 10 192 57 316 155 414 85 84 188 116 371
114 121 -1 193 -16 252 -53 67 -42 79 -63 94 -170 7 -51 28 -77 82 -101 130
-58 332 -160 332 -168 0 -5 -13 -11 -29 -14 -24 -5 -28 -10 -24 -34 15 -106
-14 -189 -82 -235 -33 -22 -55 -27 -125 -32 -107 -7 -124 -10 -238 -48 -117
-39 -198 -87 -278 -167 -105 -105 -146 -180 -120 -217 21 -28 55 -10 149 80
96 93 190 160 280 200 31 13 57 23 57 21 0 -2 14 0 31 5 17 5 65 12 107 15
106 9 131 13 177 34 82 36 156 144 190 276 16 61 22 176 10 195 -4 6 -81 47
-171 92 -216 106 -245 138 -271 300 -8 54 -19 64 -90 87 -142 45 -366 63 -501
40z"/>
<path d="M453 1378 c-36 -9 -56 -37 -51 -71 3 -19 10 -21 64 -23 78 -3 87 3
73 44 -15 43 -46 61 -86 50z"/>
<path d="M1867 1363 c-22 -26 -32 -69 -15 -75 7 -2 40 -4 73 -4 53 1 60 4 63
22 2 11 -7 32 -18 47 -25 32 -78 37 -103 10z"/>
</g>
</svg>
