<svg width="76" height="76" viewBox="0 0 76 76" fill="none" xmlns="http://www.w3.org/2000/svg">
<path d="M57.5344 23.7532C55.7014 39.8921 42.8921 52.7014 26.7531 54.5344C24.5581 54.7838 22.7598 52.9689 22.7598 50.7598V42.6348C22.7598 42.0825 23.2078 41.6371 23.7595 41.6123C26.2184 41.5017 28.5716 40.9852 30.7537 40.1281L34.0771 43.4515C39.4825 40.8647 43.8647 36.4826 46.4515 31.0772L43.1281 27.7537C43.9852 25.5716 44.5017 23.2184 44.6123 20.7595C44.6371 20.2078 45.0825 19.7598 45.6348 19.7598H53.7598C55.9689 19.7598 57.7838 21.5581 57.5344 23.7532Z" stroke="#47A3A0" stroke-width="3" stroke-linecap="round" stroke-linejoin="round"/>
<circle cx="38" cy="38" r="36.5" stroke="#47A3A0" stroke-width="3"/>
</svg>
