<svg width="76" height="76" viewBox="0 0 76 76" fill="none" xmlns="http://www.w3.org/2000/svg">
<path d="M21 24V22.5C20.1716 22.5 19.5 23.1716 19.5 24H21ZM56 24H57.5C57.5 23.1716 56.8284 22.5 56 22.5V24ZM21 25.5H56V22.5H21V25.5ZM54.5 24V47.6508H57.5V24H54.5ZM52.4286 49.7222H24.5714V52.7222H52.4286V49.7222ZM22.5 47.6508V24H19.5V47.6508H22.5ZM24.5714 49.7222C23.4274 49.7222 22.5 48.7948 22.5 47.6508H19.5C19.5 50.4517 21.7706 52.7222 24.5714 52.7222V49.7222ZM54.5 47.6508C54.5 48.7948 53.5726 49.7222 52.4286 49.7222V52.7222C55.2294 52.7222 57.5 50.4517 57.5 47.6508H54.5Z" fill="#47A3A0"/>
<path d="M21 25L38.5 42.5L56 25" stroke="#47A3A0" stroke-width="3" stroke-linecap="round" stroke-linejoin="round"/>
<circle cx="38" cy="38" r="36.5" stroke="#47A3A0" stroke-width="3"/>
</svg>
