<svg width="95" height="95" viewBox="0 0 95 95" fill="none" xmlns="http://www.w3.org/2000/svg">
<path d="M84.8995 50.3399C84.9341 49.8134 85.0724 49.346 85.3144 48.9377C85.5621 48.5358 85.8867 48.2282 86.2881 48.0148C86.689 47.8075 87.1344 47.7199 87.6242 47.7521C88.114 47.7843 88.5441 47.9294 88.9145 48.1873C89.2845 48.4514 89.563 48.7987 89.7499 49.2291C89.9426 49.666 90.0216 50.1477 89.9871 50.6742C89.9529 51.1946 89.813 51.6404 89.5672 52.0116C89.3272 52.3894 88.9994 52.6537 88.5837 52.8047L88.0597 51.6543C88.5296 51.427 88.7805 51.0715 88.8122 50.5878C88.8367 50.2144 88.7346 49.8971 88.5058 49.6362C88.277 49.3752 87.9513 49.2308 87.5289 49.2031C87.1065 49.1753 86.7648 49.2758 86.5038 49.5046C86.2429 49.7334 86.1001 50.0345 86.0756 50.408C86.0434 50.8978 86.2456 51.2831 86.6822 51.5638L86.0031 52.6352C85.623 52.4319 85.3356 52.1271 85.1409 51.7208C84.9458 51.3206 84.8654 50.8603 84.8995 50.3399Z" fill="#47A3A0"/>
<path d="M88.5772 59.0206L83.8833 55.7668C83.3705 55.429 83.034 55.0713 82.8739 54.6936C82.7126 54.3219 82.6798 53.9048 82.7753 53.4421C82.8274 53.1898 82.918 52.9485 83.047 52.7183C83.176 52.4881 83.3257 52.3091 83.4962 52.1815L84.3905 52.902C84.272 52.9903 84.1714 53.0979 84.0888 53.2249C84.005 53.358 83.9488 53.4936 83.9202 53.6318C83.8805 53.824 83.8963 53.9902 83.9676 54.1302C84.0329 54.269 84.1638 54.4089 84.3602 54.5497L84.4016 54.5771L89.7201 53.4867L89.4204 54.9378L85.8497 55.6188L88.8564 57.6687L88.5772 59.0206Z" fill="#47A3A0"/>
<path d="M82.5348 61.3103L84.3304 60.8001L83.2794 59.2308L83.8067 57.7579L85.5124 60.3927L88.4461 59.4886L87.9032 61.0049L86.1893 61.5053L87.1866 63.0064L86.6716 64.4447L85.0135 61.8954L81.9857 62.8439L82.5348 61.3103Z" fill="#47A3A0"/>
<path d="M80.6539 65.2365C80.8972 64.7753 81.2112 64.4103 81.5957 64.1415C81.9829 63.8811 82.4017 63.738 82.8523 63.7122C83.3029 63.6865 83.7453 63.7882 84.1793 64.0174C84.6134 64.2465 84.9469 64.5545 85.1799 64.9411C85.4129 65.3278 85.5285 65.7531 85.5266 66.2169C85.5272 66.689 85.4059 67.1557 85.1625 67.617C84.9192 68.0782 84.6039 68.4391 84.2168 68.6995C83.8351 68.9628 83.4189 69.1074 82.9683 69.1331C82.5177 69.1588 82.0754 69.0571 81.6414 68.828C81.2073 68.5988 80.8738 68.2909 80.6408 67.9042C80.4077 67.5175 80.2895 67.0908 80.286 66.6241C80.2879 66.1603 80.4105 65.6978 80.6539 65.2365ZM81.6956 65.7865C81.5238 66.1121 81.492 66.4353 81.6003 66.7561C81.7111 67.0852 81.9509 67.3471 82.3199 67.5419C82.6888 67.7367 83.0376 67.7855 83.3663 67.6885C83.6975 67.5997 83.949 67.3926 84.1208 67.067C84.2926 66.7414 84.3231 66.414 84.2123 66.085C84.1069 65.7587 83.8698 65.4982 83.5008 65.3034C83.1319 65.1087 82.7803 65.0584 82.4462 65.1525C82.1176 65.2496 81.8673 65.4609 81.6956 65.7865Z" fill="#47A3A0"/>
<path d="M83.1531 71.04L82.3058 72.1876L79.9373 70.4374L80.8736 74.1273L80.0918 75.1861L76.1098 72.2436L76.9571 71.096L79.3256 72.8462L78.3839 69.1637L79.171 68.0976L83.1531 71.04ZM82.1064 73.3562C82.7479 72.4875 83.4528 72.3333 84.2213 72.8935L83.6637 73.6487C83.4873 73.526 83.317 73.4726 83.1527 73.4885C82.9897 73.5131 82.8426 73.6141 82.7114 73.7918C82.5802 73.9695 82.5269 74.1399 82.5514 74.3029C82.5772 74.4746 82.6765 74.6242 82.8492 74.7518L82.2806 75.5218C81.5194 74.9517 81.4614 74.2298 82.1064 73.3562Z" fill="#47A3A0"/>
<path d="M73.0064 77.8823L73.5738 77.3989L72.3568 75.9693L73.4497 75.0383L76.6592 78.8084L75.5663 79.7395L74.3195 78.2748L73.7311 78.7762L73.9551 81.1122L72.7922 82.1029L72.5701 79.1729L69.4916 78.4103L70.7806 77.3122L73.0064 77.8823Z" fill="#47A3A0"/>
<path d="M67.1547 79.7652C67.5967 79.4884 68.0515 79.3303 68.519 79.2909C68.9846 79.26 69.4187 79.3465 69.8213 79.5504C70.2239 79.7543 70.5554 80.0643 70.8158 80.4804C71.0762 80.8965 71.2101 81.3302 71.2175 81.7816C71.225 82.2331 71.1114 82.6589 70.877 83.0591C70.6405 83.4677 70.3013 83.8105 69.8593 84.0873C69.4173 84.3641 68.9636 84.5179 68.498 84.5489C68.0357 84.585 67.6032 84.5011 67.2006 84.2972C66.798 84.0933 66.4665 83.7833 66.2061 83.3672C65.9457 82.9511 65.8118 82.5174 65.8044 82.066C65.7969 81.6146 65.9088 81.1861 66.14 80.7807C66.3745 80.3805 66.7128 80.042 67.1547 79.7652ZM67.7796 80.7638C67.4676 80.9592 67.2779 81.2228 67.2105 81.5546C67.1412 81.8948 67.2171 82.2418 67.4385 82.5954C67.6598 82.9491 67.9369 83.1665 68.2699 83.2475C68.6009 83.337 68.9225 83.2841 69.2344 83.0887C69.5464 82.8933 69.7371 82.6255 69.8065 82.2852C69.8791 81.9502 69.8047 81.6058 69.5834 81.2522C69.3621 80.8985 69.0833 80.6786 68.7471 80.5923C68.4141 80.5113 68.0916 80.5684 67.7796 80.7638Z" fill="#47A3A0"/>
<path d="M63.7315 87.2646C63.3091 87.447 62.8835 87.5139 62.4548 87.4651C62.023 87.4245 61.6319 87.2693 61.2816 86.9995C60.9337 86.7354 60.6588 86.3696 60.457 85.9021C60.2552 85.4345 60.1763 84.9807 60.2203 84.5407C60.2666 84.1063 60.4219 83.7151 60.686 83.3671C60.9469 83.0272 61.2886 82.766 61.711 82.5835C62.2911 82.3329 62.8264 82.3189 63.3167 82.5415L62.4013 80.4207L63.7193 79.8514L66.389 86.0365L65.1301 86.5802L64.904 86.0563C64.7475 86.5918 64.3567 86.9945 63.7315 87.2646ZM62.4059 83.5665C62.068 83.7125 61.8406 83.9444 61.7239 84.2621C61.6039 84.588 61.6266 84.9424 61.7919 85.3255C61.9572 85.7085 62.1984 85.9653 62.5153 86.0957C62.829 86.2342 63.1548 86.2305 63.4928 86.0845C63.8307 85.9385 64.0597 85.7026 64.1797 85.3768C64.2964 85.059 64.2722 84.7086 64.1068 84.3255C63.9415 83.9425 63.702 83.6817 63.3882 83.5432C63.0713 83.4128 62.7439 83.4205 62.4059 83.5665Z" fill="#47A3A0"/>
<path d="M54.4044 84.9245L55.1248 87.799L55.9579 85.0282L56.547 84.8805L58.5548 86.9482L57.8322 84.0648L59.0908 83.7491L60.2945 88.5518L58.8395 88.9167L56.6083 86.5255L55.6705 89.7115L54.3672 90.0384L53.1457 85.2402L54.4044 84.9245Z" fill="#47A3A0"/>
<path d="M43.9351 86.7317L43.9437 84.4862L45.2782 84.4913L45.2741 85.5589L48.7528 85.5723L48.7569 84.5048L50.0913 84.5099L50.0827 86.7555L49.8802 86.7547C49.5734 86.7596 49.3611 86.9398 49.2431 87.2952C49.1252 87.6506 49.0496 88.1565 49.0164 88.8128L48.9454 90.5244L44.6291 90.5077L44.6437 86.7345L43.9351 86.7317ZM47.7191 88.7066C47.7395 88.2036 47.781 87.7927 47.8435 87.4739C47.9 87.155 48.0083 86.9131 48.1685 86.7481L46.0794 86.74L46.0694 89.3352L47.6891 89.3415L47.7191 88.7066Z" fill="#47A3A0"/>
<path d="M38.0754 89.6316L38.8347 84.7389L40.2534 84.9592L39.6747 88.6879L41.2207 88.928L41.4003 88.0711C41.5243 87.4322 41.6677 86.9081 41.8306 86.4987C41.9934 86.0894 42.2028 85.7804 42.4587 85.5718C42.7146 85.3632 43.0365 85.289 43.4246 85.3493C43.6307 85.3813 43.8706 85.4558 44.1442 85.5728L43.8908 86.7256C43.7957 86.6984 43.7269 86.6815 43.6845 86.6749C43.4723 86.642 43.3029 86.6933 43.1763 86.8288C43.0427 86.9695 42.9394 87.1553 42.8663 87.3861C42.7923 87.6229 42.7156 87.937 42.6363 88.3282L42.2587 90.2813L38.0754 89.6316Z" fill="#47A3A0"/>
<path d="M32.2451 87.9247L33.7196 83.1981L34.9407 83.5793L34.5186 84.9322L35.5289 85.2476L36.847 84.1744L38.3053 84.6297L36.7424 85.8386C37.0302 86.0698 37.2245 86.3329 37.3252 86.6279C37.4184 86.9269 37.411 87.2492 37.3032 87.5948C37.1296 88.1512 36.7971 88.5166 36.3057 88.691C35.8066 88.8694 35.2056 88.8489 34.5028 88.6295L32.2451 87.9247ZM34.8245 87.5055C35.1174 87.5969 35.3564 87.6137 35.5415 87.5558C35.7208 87.4961 35.847 87.3491 35.9201 87.1148C35.9932 86.8805 35.9768 86.6858 35.871 86.5306C35.7574 86.3795 35.5543 86.2582 35.2614 86.1668L34.2336 85.8459L33.8143 87.1901L34.8245 87.5055Z" fill="#47A3A0"/>
<path d="M27.9922 80.3113C28.4494 80.5747 28.8078 80.9051 29.0675 81.3026C29.3188 81.7023 29.4517 82.1293 29.4662 82.5838C29.4753 83.0351 29.3574 83.4735 29.1125 83.8989C28.8677 84.3242 28.5478 84.6462 28.1529 84.8648C27.7527 85.0803 27.3183 85.177 26.8497 85.1548C26.3726 85.1349 25.9055 84.9932 25.4484 84.7298C24.9965 84.4695 24.6582 84.1471 24.4335 83.7627C24.2004 83.3806 24.1078 82.9697 24.1556 82.5299L25.419 82.5674C25.4157 83.0895 25.6241 83.4716 26.0441 83.7135C26.3684 83.9004 26.6981 83.9487 27.0331 83.8585C27.3682 83.7684 27.6414 83.5398 27.8526 83.173C28.0638 82.8061 28.1244 82.455 28.0342 82.1198C27.944 81.7846 27.7367 81.5236 27.4124 81.3368C26.9871 81.0917 26.5522 81.1032 26.1077 81.3711L25.4459 80.2887C25.796 80.0373 26.1963 79.9138 26.6467 79.9184C27.0918 79.92 27.5403 80.0509 27.9922 80.3113Z" fill="#47A3A0"/>
<path d="M23.7713 77.4339C24.1815 77.7559 24.4844 78.1302 24.6801 78.5568C24.8671 78.9844 24.933 79.4223 24.8778 79.8703C24.8226 80.3184 24.6435 80.7356 24.3406 81.1217C24.0377 81.5079 23.6752 81.7811 23.2532 81.9413C22.8313 82.1014 22.3924 82.139 21.9365 82.0542C21.472 81.9703 21.0347 81.7674 20.6245 81.4454C20.2143 81.1233 19.9156 80.7485 19.7286 80.3209C19.5378 79.8981 19.47 79.4627 19.5252 79.0146C19.5804 78.5665 19.7595 78.1493 20.0624 77.7632C20.3654 77.377 20.7278 77.1038 21.1498 76.9437C21.5717 76.7835 22.0125 76.7435 22.4722 76.8235C22.9281 76.9084 23.3611 77.1118 23.7713 77.4339ZM23.0442 78.3607C22.7547 78.1334 22.4425 78.0443 22.1076 78.0934C21.7641 78.1436 21.4637 78.3328 21.2062 78.6611C20.9487 78.9893 20.8383 79.3239 20.875 79.6647C20.9031 80.0066 21.062 80.2912 21.3515 80.5185C21.6411 80.7458 21.9576 80.8344 22.3011 80.7842C22.6408 80.7389 22.9393 80.5521 23.1969 80.2239C23.4544 79.8956 23.5666 79.5586 23.5337 79.213C23.4969 78.8721 23.3338 78.588 23.0442 78.3607Z" fill="#47A3A0"/>
<path d="M15.9198 76.5562C15.5944 76.2137 15.3803 75.8458 15.2775 75.4526C15.1703 75.0635 15.1779 74.6796 15.3003 74.3007C15.4186 73.9174 15.6444 73.5672 15.9779 73.2502C16.3203 72.9247 16.7052 72.7196 17.1325 72.635C17.5512 72.5501 17.9755 72.587 18.4054 72.7455C18.8308 72.9082 19.2231 73.1786 19.5823 73.5567C20.1781 74.1839 20.4471 74.8679 20.3892 75.6086C20.3226 76.3492 19.9003 77.0894 19.1221 77.8292C18.4018 78.514 17.6803 78.9037 16.9576 78.9982C16.2263 79.0924 15.4854 78.8782 14.7351 78.3556L12.7722 76.971L13.5328 75.9811L15.2655 77.2037C15.7343 77.5368 16.1572 77.7147 16.5341 77.7373C16.9068 77.7555 17.2812 77.6196 17.6574 77.3296C17.3406 77.3346 17.0341 77.2704 16.7381 77.137C16.4377 77.0078 16.1649 76.8142 15.9198 76.5562ZM18.7689 74.3173C18.5154 74.0504 18.2258 73.9194 17.9003 73.9241C17.5705 73.9244 17.2722 74.0514 17.0054 74.305C16.7342 74.5629 16.5967 74.8502 16.593 75.167C16.5851 75.4793 16.7079 75.7689 16.9614 76.0358C17.2192 76.3071 17.5063 76.449 17.8227 76.4614C18.1391 76.4738 18.433 76.351 18.7042 76.0932C18.9754 75.8353 19.1175 75.5394 19.1303 75.2055C19.1387 74.8758 19.0182 74.5798 18.7689 74.3173Z" fill="#47A3A0"/>
<path d="M12.1424 72.5747C11.7004 71.9479 11.5114 71.3604 11.5754 70.8122C11.6343 70.2675 11.9645 69.783 12.5661 69.3585L14.8747 67.7297L15.6489 68.8278L15.1451 69.1833C15.6766 69.1386 16.1545 69.4172 16.5787 70.0189C16.7979 70.3298 16.9362 70.6377 16.9936 70.9427C17.0474 71.2426 17.024 71.5182 16.9233 71.7694C16.8227 72.0206 16.6546 72.2293 16.4189 72.3956C16.0429 72.6609 15.6482 72.7292 15.2346 72.6004C14.8176 72.4667 14.4004 72.104 13.9833 71.5123L13.3257 70.5796C13.07 70.76 12.9293 70.9757 12.9035 71.2266C12.8728 71.4811 12.967 71.7638 13.1862 72.0747C13.3382 72.2903 13.5235 72.4787 13.7422 72.6398C13.9523 72.7994 14.1663 72.9112 14.3841 72.9753L13.8614 73.9748C13.5505 73.8638 13.2446 73.6855 12.9437 73.4397C12.6393 73.1889 12.3722 72.9006 12.1424 72.5747ZM15.5824 70.2827C15.4409 70.0821 15.2703 69.9359 15.0705 69.8441C14.8656 69.7559 14.65 69.7428 14.4236 69.805L14.01 70.0968L14.5774 70.9016C14.9168 71.383 15.2444 71.5123 15.5602 71.2894C15.7106 71.1833 15.7903 71.0408 15.7992 70.8618C15.7996 70.6813 15.7273 70.4883 15.5824 70.2827Z" fill="#47A3A0"/>
<path d="M11.6857 65.7967L12.0237 66.461L13.6968 65.6092L14.3478 66.8888L9.93558 69.1354L9.28453 67.8558L10.9986 66.983L10.648 66.294L8.32466 65.9692L7.63188 64.6076L10.5324 65.0723L11.9898 62.2544L12.7577 63.7636L11.6857 65.7967Z" fill="#47A3A0"/>
<path d="M6.03936 60.2483L5.70311 58.862L8.56499 58.1673L5.13473 56.5187L4.82451 55.2398L9.63605 54.0718L9.9723 55.4581L7.11042 56.1528L10.5385 57.7924L10.8509 59.0803L6.03936 60.2483Z" fill="#47A3A0"/>
<path d="M6.67234 50.2759C6.73677 49.9742 6.85631 49.7351 7.03096 49.5587C7.20504 49.3761 7.42342 49.2727 7.68611 49.2483C7.99768 49.2194 8.28251 49.3008 8.5406 49.4925C8.79259 49.6847 9.00001 49.9612 9.16288 50.322C9.32575 50.6827 9.429 51.0983 9.47264 51.5687C9.50835 51.9536 9.50379 52.336 9.45894 52.7161C9.4141 53.0961 9.327 53.4523 9.19763 53.7847L8.16308 53.4926C8.36538 52.9501 8.43734 52.3642 8.37896 51.7349C8.34778 51.3989 8.27454 51.1408 8.15922 50.9605C8.03723 50.7746 7.88459 50.6902 7.70132 50.7072C7.54248 50.722 7.42959 50.8002 7.36264 50.942C7.28958 51.0844 7.26496 51.2838 7.28876 51.5404L7.38229 52.5484L6.49341 52.6309L6.41179 51.7512C6.38855 51.5008 6.33099 51.312 6.2391 51.185C6.14721 51.0579 6.0249 51.0015 5.87217 51.0157C5.71334 51.0305 5.59909 51.1273 5.52943 51.3063C5.45921 51.4792 5.43855 51.7214 5.46746 52.033C5.51167 52.5095 5.67287 53.0183 5.95105 53.5594L4.99368 53.9995C4.63085 53.343 4.4194 52.691 4.35932 52.0435C4.31794 51.5975 4.33608 51.1953 4.41373 50.8369C4.49082 50.4723 4.62693 50.1793 4.82204 49.9579C5.01105 49.737 5.24606 49.6135 5.52708 49.5874C5.75922 49.5658 5.97651 49.6165 6.17892 49.7395C6.37523 49.863 6.53971 50.0418 6.67234 50.2759Z" fill="#47A3A0"/>
<path d="M4.2687 44.4347L4.45497 43.0204L6.37104 43.273L6.65224 41.1379L4.73617 40.8854L4.92363 39.462L9.83244 40.109L9.64497 41.5323L7.81101 41.2906L7.52981 43.4257L9.36377 43.6674L9.17751 45.0817L4.2687 44.4347Z" fill="#47A3A0"/>
<path d="M5.6816 36.1948C5.89053 35.4569 6.22808 34.9404 6.69424 34.6452C7.15451 34.3484 7.73882 34.3003 8.44718 34.501L11.1655 35.2712L10.7995 36.5641L10.2062 36.396C10.5754 36.7812 10.6597 37.328 10.4591 38.0364C10.3555 38.4024 10.2033 38.7036 10.0024 38.94C9.80324 39.1705 9.57439 39.3257 9.31586 39.4055C9.05733 39.4853 8.78935 39.4859 8.51191 39.4073C8.06918 39.2818 7.76771 39.0178 7.60748 38.6153C7.44892 38.2069 7.46826 37.6544 7.66549 36.9578L7.97637 35.8598C7.67532 35.7745 7.41919 35.8008 7.208 35.9386C6.9909 36.0748 6.83054 36.3259 6.72691 36.6919C6.65504 36.9457 6.62532 37.2083 6.63776 37.4797C6.64597 37.7435 6.69373 37.9802 6.78103 38.1899L5.67548 38.4123C5.56603 38.1007 5.51211 37.7506 5.51372 37.3621C5.517 36.9676 5.57296 36.5785 5.6816 36.1948ZM9.62719 37.4276C9.69404 37.1915 9.70025 36.9668 9.64581 36.7537C9.58547 36.5389 9.45991 36.3631 9.26913 36.2261L8.78213 36.0881L8.51387 37.0356C8.35341 37.6023 8.45913 37.9384 8.83101 38.0437C9.00811 38.0939 9.169 38.0662 9.3137 37.9605C9.45416 37.8473 9.55866 37.6696 9.62719 37.4276Z" fill="#47A3A0"/>
<path d="M9.73494 28.9399L9.06543 30.4752L12.5237 31.9844L11.9536 33.292L8.49525 31.7828L7.82575 33.3181L6.74608 32.847L8.65527 28.4687L9.73494 28.9399Z" fill="#47A3A0"/>
<path d="M11.7942 23.1093L15.1301 27.7456C15.5005 28.2355 15.698 28.6851 15.7227 29.0946C15.7505 29.4989 15.642 29.903 15.3973 30.3071C15.2638 30.5276 15.0979 30.7247 14.8993 30.8986C14.7008 31.0724 14.4999 31.191 14.2966 31.2543L13.6947 30.2762C13.8358 30.2326 13.9666 30.1647 14.0869 30.0726C14.2104 29.9753 14.3087 29.8663 14.3818 29.7456C14.4834 29.5776 14.5241 29.4157 14.5037 29.2599C14.4885 29.1072 14.4119 28.9317 14.2739 28.7332L14.2441 28.6937L8.86742 27.9429L9.63487 26.6755L13.2275 27.2276L11.0792 24.2901L11.7942 23.1093Z" fill="#47A3A0"/>
<path d="M14.2144 19.9576C14.5076 19.6029 14.8561 19.3498 15.26 19.1981C15.6631 19.0379 16.082 18.9982 16.5166 19.079C16.9465 19.1559 17.3577 19.3567 17.7501 19.6812C18.1425 20.0058 18.4192 20.374 18.5803 20.7859C18.7366 21.1939 18.7763 21.6129 18.6995 22.043C18.6218 22.4644 18.4364 22.8525 18.1432 23.2072C17.7406 23.6943 17.2704 23.9502 16.7324 23.9751L18.5124 25.4474L17.5978 26.554L12.4067 22.2604L13.2803 21.2034L13.72 21.5671C13.6158 21.019 13.7806 20.4826 14.2144 19.9576ZM17.0772 22.6479C17.3117 22.3641 17.4087 22.0542 17.3681 21.7181C17.3267 21.3733 17.1452 21.068 16.8237 20.8021C16.5023 20.5362 16.1707 20.4172 15.8292 20.4452C15.4868 20.4646 15.1984 20.6162 14.9639 20.8999C14.7293 21.1837 14.6328 21.498 14.6742 21.8427C14.7148 22.1788 14.8958 22.4799 15.2173 22.7458C15.5388 23.0117 15.8707 23.1349 16.2131 23.1156C16.5546 23.0875 16.8427 22.9316 17.0772 22.6479Z" fill="#47A3A0"/>
<path d="M18.0504 15.9456C18.6195 15.4314 19.1799 15.1732 19.7316 15.1709C20.2791 15.164 20.7996 15.4338 21.293 15.9803L23.1862 18.0775L22.1892 18.9783L21.776 18.5206C21.884 19.0431 21.6649 19.5511 21.1186 20.0447C20.8363 20.2997 20.5473 20.474 20.2516 20.5676C19.9604 20.657 19.6841 20.6668 19.4227 20.597C19.1613 20.5272 18.934 20.3853 18.7408 20.1713C18.4324 19.8297 18.3173 19.4459 18.3955 19.0197C18.4782 18.5894 18.7882 18.1316 19.3254 17.6463L20.1722 16.8813C19.9625 16.649 19.7316 16.5352 19.4794 16.5397C19.2232 16.5397 18.9539 16.6672 18.6717 16.9222C18.4759 17.0991 18.3112 17.3057 18.1776 17.5422C18.0443 17.7701 17.959 17.996 17.9215 18.22L16.8669 17.8209C16.9398 17.4988 17.0801 17.1735 17.2879 16.8452C17.5003 16.5128 17.7545 16.2129 18.0504 15.9456ZM20.7374 19.0868C20.9195 18.9223 21.0441 18.7353 21.1112 18.5258C21.1743 18.3118 21.1614 18.0961 21.0725 17.8786L20.7334 17.5029L20.0027 18.1631C19.5656 18.5579 19.4766 18.8988 19.7356 19.1857C19.8589 19.3223 20.01 19.3843 20.1887 19.3717C20.3678 19.3504 20.5507 19.2554 20.7374 19.0868Z" fill="#47A3A0"/>
<path d="M25.2363 10.6167L27.9848 14.7351L26.7909 15.5325L24.6963 12.3939L23.3953 13.2628L23.8423 14.0156C24.1829 14.5702 24.4316 15.0534 24.5884 15.4651C24.7452 15.8769 24.7998 16.2462 24.7524 16.573C24.7049 16.8998 24.518 17.1722 24.1914 17.3903C24.0179 17.5061 23.7909 17.6135 23.5102 17.7124L22.9175 16.6917C23.006 16.6474 23.068 16.6133 23.1038 16.5895C23.2823 16.4702 23.3724 16.3178 23.374 16.1323C23.3773 15.9383 23.3278 15.7315 23.2256 15.5121C23.12 15.2875 22.9642 15.0042 22.7581 14.6623L21.7159 12.9679L25.2363 10.6167Z" fill="#47A3A0"/>
<path d="M26.6649 9.78836L27.957 9.18393L28.7754 10.9347L30.726 10.0222L29.9076 8.27143L31.2081 7.66309L33.3047 12.1485L32.0043 12.7568L31.221 11.0811L29.2703 11.9936L30.0537 13.6693L28.7616 14.2738L26.6649 9.78836Z" fill="#47A3A0"/>
<path d="M35.4155 7.9499C36.0376 7.78253 36.5461 7.79022 36.9411 7.97295C37.3361 8.15568 37.6045 8.50116 37.7463 9.00939C37.8947 9.54125 37.8291 10.0023 37.5494 10.3925C37.2697 10.7828 36.799 11.0703 36.1371 11.2551L33.8123 11.8948L32.4815 7.12573L33.8554 6.74205L34.2809 8.26674L35.4155 7.9499ZM37.3922 5.7544L38.7661 5.37073L40.0969 10.1398L38.7229 10.5235L37.3922 5.7544ZM35.7385 10.3058C36.006 10.2375 36.1943 10.1244 36.3031 9.96661C36.4119 9.80881 36.4334 9.61172 36.3674 9.37533C36.3031 9.14486 36.1852 8.99624 36.0137 8.92947C35.8481 8.86105 35.6285 8.86184 35.3551 8.93184L34.5283 9.15318L34.9141 10.536L35.7385 10.3058Z" fill="#47A3A0"/>
<path d="M43.7109 9.78082L42.4624 8.39297L41.516 10.0273L39.9612 10.2019L41.5762 7.51082L39.4731 5.27433L41.0736 5.0946L42.2773 6.41339L43.1862 4.85736L44.7044 4.68687L43.1452 7.29759L45.3297 9.59904L43.7109 9.78082Z" fill="#47A3A0"/>
<path d="M54.5084 5.25412L53.9373 10.1723L52.5112 10.0066L52.9464 6.25856L50.8987 6.02063L50.4635 9.76872L49.0466 9.60408L49.6176 4.68586L54.5084 5.25412Z" fill="#47A3A0"/>
<path d="M58.8902 6.24514C59.3339 6.36722 59.7077 6.58144 60.0116 6.88779C60.3231 7.18985 60.5311 7.55571 60.6356 7.98538C60.7418 8.40914 60.7274 8.86652 60.5924 9.35754C60.4574 9.84855 60.2351 10.2519 59.9256 10.5676C59.6177 10.8775 59.2519 11.0854 58.8282 11.1916C58.4121 11.2934 57.9822 11.2833 57.5385 11.1612C56.9292 10.9935 56.5029 10.6694 56.2596 10.1888L55.6472 12.4162L54.263 12.0353L56.049 5.53967L57.3711 5.90348L57.2199 6.45366C57.6768 6.13396 58.2336 6.06445 58.8902 6.24514ZM57.6112 9.95943C57.9662 10.0571 58.2886 10.0185 58.5784 9.84376C58.8758 9.6647 59.0798 9.37403 59.1904 8.97175C59.301 8.56947 59.2735 8.21828 59.1079 7.91816C58.9498 7.61376 58.6933 7.41272 58.3383 7.31505C57.9834 7.21739 57.6572 7.25808 57.3599 7.43715C57.07 7.61193 56.8698 7.90045 56.7591 8.30273C56.6485 8.70501 56.6723 9.05835 56.8304 9.36275C56.996 9.66287 57.2563 9.86176 57.6112 9.95943Z" fill="#47A3A0"/>
<path d="M62.4012 12.9213C61.9248 12.7091 61.5397 12.4201 61.2459 12.0542C60.9602 11.6852 60.7894 11.2767 60.7335 10.8287C60.6777 10.3807 60.7495 9.9325 60.9491 9.48405C61.1486 9.03561 61.4334 8.68224 61.8036 8.42393C62.1737 8.16563 62.5901 8.02199 63.053 7.99301C63.5239 7.96093 63.9976 8.05096 64.474 8.26311C64.9504 8.47525 65.3314 8.76583 65.6172 9.13485C65.9054 9.49826 66.0774 9.90396 66.1333 10.3519C66.1891 10.7999 66.1173 11.2482 65.9177 11.6966C65.7182 12.145 65.4334 12.4984 65.0632 12.7567C64.6931 13.015 64.2754 13.1615 63.8101 13.196C63.3473 13.225 62.8776 13.1334 62.4012 12.9213ZM62.8801 11.845C63.2164 11.9948 63.5409 12.005 63.8537 11.8756C64.1745 11.7431 64.4198 11.4863 64.5894 11.1051C64.759 10.7239 64.7844 10.3725 64.6656 10.051C64.5549 9.72632 64.3314 9.48911 63.9951 9.33936C63.6588 9.18962 63.3302 9.18099 63.0094 9.31347C62.691 9.44036 62.447 9.69439 62.2774 10.0756C62.1078 10.4567 62.0812 10.8109 62.1975 11.1381C62.3163 11.4596 62.5438 11.6953 62.8801 11.845Z" fill="#47A3A0"/>
<path d="M70.6598 16.1986L69.4478 18.089L68.3246 17.3683L68.9009 16.4696L65.973 14.5909L65.3968 15.4896L64.2737 14.7689L65.4858 12.8786L65.6562 12.9879C65.9177 13.1484 66.1935 13.1104 66.4837 12.8738C66.7739 12.6372 67.1091 12.2508 67.4892 11.7148L68.4674 10.3086L72.1001 12.6396L70.0634 15.8159L70.6598 16.1986ZM68.5267 12.5008C68.2397 12.9143 67.9842 13.2389 67.7604 13.4743C67.5417 13.713 67.3205 13.8591 67.0969 13.9124L68.8551 15.0406L70.2559 12.8559L68.8927 11.9811L68.5267 12.5008Z" fill="#47A3A0"/>
<path d="M77.4521 17.1308L72.3068 19.6073C71.76 19.8867 71.2829 20.0027 70.8756 19.9555C70.4729 19.9123 70.0939 19.7349 69.7388 19.4233C69.5451 19.2534 69.38 19.0555 69.2435 18.8296C69.107 18.6037 69.0253 18.3851 68.9984 18.1738L70.0661 17.7516C70.0844 17.8983 70.1284 18.0389 70.1981 18.1735C70.2724 18.3121 70.3626 18.428 70.4686 18.521C70.6162 18.6505 70.7685 18.7188 70.9254 18.7259C71.0784 18.7377 71.2645 18.6928 71.4839 18.5915L71.5281 18.569L73.2045 13.4041L74.3183 14.3813L73.1484 17.8237L76.4144 16.2204L77.4521 17.1308Z" fill="#47A3A0"/>
<path d="M77.2333 21.5265L76.748 20.9606L75.3233 22.1834L74.3887 21.0935L78.146 17.869L79.0806 18.9588L77.621 20.2114L78.1243 20.7983L80.4586 20.5655L81.4531 21.7252L78.5249 21.9582L77.7737 25.0406L76.6713 23.7552L77.2333 21.5265Z" fill="#47A3A0"/>
<path d="M83.3663 26.8017L82.4571 25.395L79.2889 27.4444L78.5145 26.2464L81.6827 24.197L80.7734 22.7903L81.7625 22.1505L84.3554 26.1619L83.3663 26.8017Z" fill="#47A3A0"/>
<path d="M81.4208 31.5093C81.2 31.0368 81.0985 30.5661 81.1163 30.0972C81.1423 29.6312 81.281 29.2107 81.5324 28.8357C81.7838 28.4607 82.1317 28.1693 82.5763 27.9613C83.0209 27.7533 83.4676 27.673 83.9165 27.7205C84.3653 27.7679 84.774 27.9323 85.1426 28.2137C85.5194 28.4981 85.8181 28.8765 86.039 29.3489C86.2598 29.8214 86.3573 30.2906 86.3313 30.7566C86.3108 31.2199 86.1749 31.6391 85.9235 32.0141C85.6721 32.3891 85.3242 32.6806 84.8796 32.8886C84.435 33.0965 83.9883 33.1768 83.5394 33.1294C83.0906 33.082 82.6791 32.9189 82.3049 32.64C81.9364 32.3586 81.6416 31.9817 81.4208 31.5093ZM82.4878 31.0101C82.6437 31.3436 82.8822 31.564 83.2032 31.6712C83.5324 31.7814 83.8859 31.7481 84.2638 31.5713C84.6417 31.3945 84.8911 31.1457 85.0121 30.825C85.1412 30.5072 85.1279 30.1815 84.972 29.8481C84.8161 29.5146 84.5735 29.2927 84.2444 29.1826C83.9207 29.0698 83.57 29.1018 83.1921 29.2786C82.8142 29.4553 82.562 29.7054 82.4354 30.0288C82.3145 30.3495 82.3319 30.6766 82.4878 31.0101Z" fill="#47A3A0"/>
<path d="M86.3794 37.3575C86.3586 37.9722 86.0661 38.3641 85.5019 38.5333C85.0729 38.6619 84.6924 38.5998 84.3605 38.347C84.0286 38.0942 83.7667 37.6475 83.5748 37.0069L82.8169 34.4767L87.5596 33.0549L88.2858 35.4793C88.4637 36.0729 88.494 36.5698 88.3769 36.97C88.2657 37.3685 88.0162 37.6258 87.6283 37.7421C87.3932 37.8126 87.1661 37.8134 86.9469 37.7446C86.7354 37.6799 86.5462 37.5509 86.3794 37.3575ZM85.989 34.8996L86.3006 35.9399C86.445 36.4219 86.6876 36.6117 87.0285 36.5096C87.3635 36.4091 87.4588 36.118 87.3144 35.636L87.0028 34.5957L85.989 34.8996ZM84.4749 36.6121C84.6263 37.1176 84.8754 37.3184 85.2221 37.2144C85.4043 37.1598 85.5189 37.0614 85.566 36.9192C85.619 36.7752 85.6076 36.5768 85.5319 36.3241L85.178 35.1428L84.1289 35.4572L84.4749 36.6121Z" fill="#47A3A0"/>
</svg>
