<svg width="60" height="42" viewBox="0 0 60 42" fill="none" xmlns="http://www.w3.org/2000/svg">
<path d="M45.5937 19.0003C43.9861 19.041 43.9815 20.5572 44.0045 20.8106C44.0275 21.0641 44.7185 20.9374 45.5016 20.9057C46.2847 20.874 46.9711 21.2406 46.9987 20.7111C47.0263 20.1816 46.6164 18.9777 45.5937 19.0003Z" fill="#47A3A0"/>
<path d="M10.5939 19.0003C8.98609 19.041 8.98148 20.5572 9.00452 20.8106C9.02755 21.0641 9.7186 20.9374 10.5018 20.9057C11.285 20.874 11.976 21.2406 11.9991 20.7111C12.0221 20.1816 11.6167 18.9777 10.5939 19.0003Z" fill="#47A3A0"/>
<path d="M56.3002 25.544C56.3002 26.078 56.6575 28.8816 54.1983 30.5957C52.2331 31.9734 51.5343 30.4943 46.4111 32.155C41.2879 33.8158 39.8481 35.3911 37.8251 37.698C35.8021 40.0049 35.6918 41.3292 36.2488 41.8205C36.8057 42.3118 37.6044 41.8205 39.2596 40.0262C40.9148 38.232 45.1395 34.5207 49.2433 34.0347C53.3471 33.5488 55.9428 34.1468 58.2706 29.8428C60.5984 25.5387 59.9836 21.9237 59.7471 21.6674C59.5107 21.4111 57.6926 20.5513 55.265 19.3658C52.8374 18.1803 50.6042 17.2297 49.9054 14.8855C49.2065 12.5412 49.3799 11.5106 49.0121 11.0781C48.6443 10.6455 46.0222 9.65761 42.8537 9.26245C39.6852 8.86728 35.8442 8.76582 32.5021 10.0688C29.1602 11.3718 25.7657 14.8481 24.72 19.6221C23.6744 24.3961 23.6692 29.1753 25.3611 32.6249C27.0531 36.0746 28.8711 35.9411 30.2741 35.9411C31.6771 35.9411 34.2468 34.6862 35.0665 31.9361C35.7764 29.6569 36.0964 27.271 36.0123 24.8819C35.7774 22.4715 35.2478 20.1001 34.4359 17.8225C34.131 16.8666 33.3848 15.4408 32.2498 15.7933C31.5983 16.0015 31.4459 16.5783 31.7244 17.9988C32.0291 19.7236 32.8699 21.6887 33.0801 22.682C33.5356 24.6635 33.6141 26.7151 33.3113 28.7267C33.0065 30.6812 31.9661 33.191 30.3267 33.2444C28.372 33.3031 27.2948 30.7719 27.1214 30.0137C26.6537 27.9898 26.5959 24.6416 27.1214 21.1974C27.279 20.1774 28.1723 17.2672 29.2758 15.8841C30.663 14.1486 31.6719 13.2835 32.5231 12.9684C34.1341 12.255 35.8557 11.8338 37.6097 11.7242C39.5649 11.6098 41.5264 11.7479 43.4475 12.1354C44.5961 12.5279 45.6649 13.1305 46.6002 13.9136C47.2991 14.5438 47.6511 17.2725 47.6511 17.6517C47.6958 17.9572 47.8067 18.2488 47.9759 18.5055C48.1451 18.7622 48.3679 18.9776 48.6285 19.1362C49.2485 19.5314 53.5993 21.4377 54.2666 21.8436C55.4804 22.5912 57.3248 23.1465 57.535 23.8674C57.3406 23.9475 56.2318 23.9476 56.132 24.3054C55.9534 24.8178 56.2949 25.3732 56.3002 25.544Z" fill="#47A3A0"/>
<path d="M15.8672 33.1782C20.0758 35.6878 21.1186 37.0378 21.8848 37.8902C22.6509 38.7426 23.481 39.7697 23.481 41.1198C23.481 42.4699 21.9753 41.9404 21.5922 41.6493C21.2091 41.3581 18.8202 37.7738 16.2716 36.4819C13.723 35.1901 12.4354 34.6607 10.951 34.3642C9.46653 34.0677 5.87512 34.2477 4.34279 33.0141C2.81045 31.7805 1.39517 30.1657 0.480025 26.2638C-0.435119 22.362 0.00643919 21.9808 1.39512 21.3931C2.7838 20.8054 4.13528 21.4514 5.73147 16.0987C7.32765 10.7461 11.3925 11.7309 12.8078 8.52778C14.2231 5.32468 12.8983 1.7774 13.457 0.956767C14.0156 0.136139 14.5211 -0.245055 15.5213 0.167906C16.5216 0.580867 22.8638 4.62577 26.1625 7.58004C28.1684 9.4013 28.2269 9.89897 27.7587 10.7196C27.2905 11.5402 26.136 11.2491 24.6303 9.98374C23.1245 8.71838 22.2466 7.52714 19.3097 5.61587C16.0588 3.49812 16.2716 6.31997 16.1173 8.01947C15.963 9.8778 16.6812 11.0955 15.7927 11.3496C11.3819 12.6256 10.403 14.3251 8.80146 16.194C7.04566 18.2482 8.04056 20.636 7.41272 21.6207C6.59867 22.9125 3.68835 23.3785 3.10308 23.6908C2.3316 24.9402 3.63509 23.5532 4.31613 24.4692C4.66729 24.9296 4.05015 26.0573 4.04483 26.412C4.04483 29.7369 5.81659 31.177 7.76926 31.3517C9.45589 31.4787 12.7546 31.3199 15.8672 33.1782Z" fill="#47A3A0"/>
</svg>
