<svg width="150" height="106" viewBox="0 0 150 106" fill="none" xmlns="http://www.w3.org/2000/svg">
<path d="M113.161 46.7667C108.532 46.886 108.519 51.3296 108.585 52.0724C108.652 52.8152 110.641 52.4438 112.896 52.351C115.151 52.2581 117.128 53.3325 117.207 51.7806C117.287 50.2287 116.106 46.7003 113.161 46.7667Z" fill="#47A3A0"/>
<path d="M26.6903 46.7667C22.061 46.886 22.0478 51.3296 22.1141 52.0724C22.1804 52.8152 24.1701 52.4438 26.425 52.351C28.68 52.2581 30.6696 53.3325 30.7359 51.7806C30.8023 50.2287 29.635 46.7003 26.6903 46.7667Z" fill="#47A3A0"/>
<path d="M140.38 64.5934C140.38 65.9199 141.282 72.8837 135.074 77.1415C130.113 80.5638 128.349 76.8895 115.416 81.0147C102.484 85.14 98.8491 89.053 93.7423 94.7832C88.6355 100.513 88.357 103.803 89.763 105.023C91.169 106.244 93.1852 105.023 97.3635 100.566C101.542 96.1096 112.206 86.8909 122.566 85.6838C132.925 84.4768 139.478 85.9624 145.354 75.2713C151.23 64.5802 149.678 55.6007 149.081 54.964C148.484 54.3273 143.895 52.1917 137.767 49.247C131.639 46.3023 126.001 43.9411 124.237 38.1181C122.473 32.295 122.911 29.7351 121.982 28.6607C121.054 27.5863 114.435 25.1324 106.436 24.1508C98.4379 23.1692 88.7417 22.9172 80.3051 26.1537C71.869 29.3902 63.3 38.0254 60.6604 49.8837C58.0208 61.7421 58.0077 73.6132 62.2788 82.182C66.5499 90.7508 71.1393 90.4192 74.6809 90.4192C78.2225 90.4192 84.7093 87.3021 86.7785 80.4709C88.5705 74.8097 89.3784 68.8831 89.1661 62.9486C88.5732 56.9615 87.2362 51.071 85.1868 45.4135C84.4171 43.0392 82.5334 39.4976 79.6683 40.373C78.0235 40.8903 77.6388 42.323 78.3418 45.8514C79.1112 50.1358 81.2336 55.0171 81.7642 57.4842C82.9141 62.4061 83.1121 67.5023 82.3478 72.499C81.5785 77.3538 78.9521 83.588 74.8136 83.7207C69.8793 83.8666 67.16 77.5793 66.7222 75.6957C65.5417 70.6685 65.3958 62.3517 66.7222 53.7966C67.1202 51.2631 69.3752 44.0341 72.1608 40.5987C75.6626 36.2877 78.2093 34.1389 80.3582 33.3563C84.4248 31.584 88.7708 30.538 93.1985 30.2657C98.1342 29.9814 103.086 30.3246 107.935 31.287C110.835 32.262 113.533 33.7589 115.894 35.7041C117.658 37.2693 118.547 44.0474 118.547 44.9892C118.66 45.748 118.939 46.4724 119.366 47.11C119.794 47.7478 120.356 48.2827 121.014 48.6767C122.579 49.6582 133.562 54.3936 135.247 55.4017C138.311 57.2587 142.967 58.6381 143.497 60.4288C143.006 60.6278 140.208 60.6279 139.955 61.5166C139.504 62.7895 140.367 64.169 140.38 64.5934Z" fill="#47A3A0"/>
<path d="M39.5572 83.1239C50.0494 89.4112 52.6492 92.7937 54.5592 94.9292C56.4693 97.0648 58.5386 99.6381 58.5386 103.021C58.5386 106.403 54.7849 105.076 53.8298 104.347C52.8748 103.617 46.9191 94.6374 40.5654 91.4009C34.2118 88.1644 31.0018 86.8379 27.301 86.0951C23.6003 85.3523 14.6468 85.8033 10.8267 82.7127C7.00652 79.6221 3.47819 75.5765 1.19671 65.8006C-1.08476 56.0252 0.0160531 55.0701 3.47806 53.5978C6.94007 52.1254 10.3094 53.7437 14.2887 40.3334C18.268 26.9231 28.4019 29.3902 31.9302 21.3653C35.4585 13.3403 32.1558 4.45304 33.5486 2.39706C34.9413 0.341078 36.2013 -0.613956 38.695 0.420667C41.1887 1.45529 56.9999 11.5893 65.2238 18.9908C70.2245 23.5538 70.3704 24.8006 69.2031 26.8566C68.0359 28.9126 65.1576 28.1832 61.4038 25.013C57.65 21.8428 55.4614 18.8583 48.1394 14.0699C40.0349 8.76411 40.5654 15.8339 40.1808 20.0918C39.7961 24.7476 41.5867 27.7984 39.3715 28.4351C28.3753 31.6318 25.9348 35.8897 21.9422 40.572C17.565 45.7186 20.0453 51.7008 18.4801 54.168C16.4506 57.4045 9.19515 58.5718 7.73606 59.3544C5.81272 62.4845 9.06237 59.0096 10.7602 61.3044C11.6357 62.458 10.0971 65.2833 10.0839 66.172C10.0839 74.5021 14.5009 78.11 19.3689 78.5477C23.5738 78.866 31.7975 78.4681 39.5572 83.1239Z" fill="#47A3A0"/>
</svg>
