<svg width="230" height="230" viewBox="0 0 230 230" fill="none" xmlns="http://www.w3.org/2000/svg">
<path d="M209.168 120.897C209.255 119.582 209.6 118.413 210.205 117.393C210.824 116.389 211.636 115.62 212.639 115.086C213.641 114.568 214.754 114.349 215.978 114.43C217.202 114.51 218.277 114.873 219.203 115.518C220.127 116.178 220.823 117.045 221.29 118.121C221.772 119.213 221.969 120.417 221.883 121.733C221.798 123.033 221.448 124.147 220.834 125.075C220.234 126.019 219.414 126.68 218.376 127.057L217.066 124.182C218.241 123.614 218.867 122.725 218.947 121.517C219.008 120.583 218.753 119.791 218.181 119.138C217.609 118.486 216.795 118.125 215.74 118.056C214.684 117.987 213.83 118.238 213.178 118.81C212.526 119.382 212.169 120.134 212.108 121.067C212.027 122.291 212.533 123.254 213.624 123.956L211.926 126.634C210.976 126.126 210.258 125.364 209.772 124.348C209.284 123.348 209.083 122.198 209.168 120.897Z" fill="#47A3A0"/>
<path d="M218.322 142.859L206.591 134.728C205.309 133.884 204.469 132.99 204.069 132.046C203.666 131.117 203.583 130.075 203.822 128.919C203.953 128.288 204.179 127.685 204.501 127.11C204.824 126.534 205.198 126.087 205.624 125.768L207.859 127.568C207.563 127.789 207.312 128.058 207.105 128.376C206.896 128.708 206.755 129.047 206.684 129.392C206.584 129.873 206.624 130.288 206.802 130.638C206.965 130.985 207.292 131.334 207.783 131.686L207.887 131.755L221.179 129.029L220.43 132.655L211.506 134.358L219.02 139.48L218.322 142.859Z" fill="#47A3A0"/>
<path d="M203.144 148.845L207.632 147.57L205.005 143.649L206.324 139.968L210.586 146.552L217.919 144.292L216.562 148.081L212.278 149.332L214.77 153.083L213.483 156.677L209.339 150.307L201.771 152.678L203.144 148.845Z" fill="#47A3A0"/>
<path d="M198.33 158.911C198.938 157.758 199.723 156.846 200.684 156.174C201.652 155.523 202.699 155.166 203.825 155.101C204.951 155.037 206.057 155.291 207.142 155.863C208.227 156.436 209.06 157.205 209.643 158.172C210.225 159.138 210.514 160.2 210.509 161.359C210.51 162.539 210.207 163.705 209.599 164.858C208.99 166.011 208.202 166.912 207.235 167.563C206.28 168.221 205.24 168.583 204.114 168.647C202.988 168.711 201.882 168.457 200.797 167.885C199.712 167.312 198.879 166.543 198.296 165.577C197.714 164.611 197.419 163.544 197.41 162.378C197.415 161.219 197.721 160.063 198.33 158.911ZM200.933 160.285C200.504 161.098 200.425 161.906 200.695 162.708C200.972 163.53 201.571 164.184 202.493 164.671C203.416 165.158 204.287 165.28 205.109 165.037C205.937 164.815 206.566 164.298 206.995 163.484C207.424 162.67 207.501 161.852 207.224 161.03C206.961 160.215 206.368 159.564 205.446 159.077C204.524 158.591 203.645 158.465 202.81 158.7C201.988 158.943 201.363 159.471 200.933 160.285Z" fill="#47A3A0"/>
<path d="M204.417 173.662L202.299 176.529L196.379 172.156L198.718 181.376L196.764 184.022L186.811 176.67L188.929 173.802L194.849 178.175L192.496 168.974L194.464 166.31L204.417 173.662ZM201.8 179.449C203.404 177.278 205.166 176.893 207.087 178.293L205.693 180.18C205.252 179.873 204.826 179.74 204.416 179.78C204.008 179.841 203.64 180.094 203.312 180.538C202.985 180.982 202.851 181.407 202.912 181.815C202.977 182.244 203.225 182.617 203.657 182.936L202.235 184.86C200.333 183.436 200.188 181.632 201.8 179.449Z" fill="#47A3A0"/>
<path d="M178.746 191.087L180.164 189.879L177.122 186.307L179.854 183.98L187.877 193.401L185.145 195.727L182.028 192.068L180.557 193.32L181.118 199.157L178.211 201.633L177.655 194.311L169.96 192.406L173.182 189.662L178.746 191.087Z" fill="#47A3A0"/>
<path d="M163.887 195.961C164.992 195.269 166.129 194.874 167.297 194.776C168.461 194.698 169.546 194.915 170.552 195.424C171.559 195.934 172.387 196.709 173.038 197.748C173.689 198.788 174.024 199.872 174.043 201C174.061 202.128 173.778 203.192 173.192 204.192C172.601 205.213 171.753 206.069 170.648 206.761C169.544 207.452 168.409 207.837 167.246 207.914C166.09 208.004 165.009 207.795 164.003 207.285C162.996 206.775 162.168 206.001 161.517 204.961C160.866 203.921 160.531 202.837 160.512 201.709C160.494 200.581 160.773 199.511 161.351 198.498C161.937 197.498 162.783 196.652 163.887 195.961ZM165.449 198.456C164.67 198.944 164.195 199.603 164.027 200.432C163.854 201.282 164.044 202.149 164.597 203.033C165.15 203.916 165.843 204.46 166.675 204.662C167.503 204.886 168.306 204.754 169.086 204.265C169.866 203.777 170.343 203.108 170.516 202.258C170.697 201.421 170.511 200.56 169.958 199.677C169.405 198.793 168.708 198.243 167.868 198.027C167.035 197.825 166.229 197.968 165.449 198.456Z" fill="#47A3A0"/>
<path d="M155.066 214.838C154.01 215.294 152.946 215.461 151.875 215.339C150.795 215.237 149.818 214.849 148.942 214.175C148.073 213.515 147.386 212.601 146.881 211.433C146.377 210.264 146.179 209.13 146.289 208.031C146.405 206.945 146.793 205.967 147.453 205.098C148.105 204.249 148.959 203.596 150.014 203.14C151.464 202.514 152.802 202.479 154.028 203.035L151.739 197.735L155.033 196.313L161.707 211.77L158.561 213.128L157.996 211.819C157.605 213.157 156.628 214.163 155.066 214.838ZM151.752 205.597C150.907 205.961 150.339 206.541 150.047 207.335C149.747 208.149 149.804 209.035 150.217 209.992C150.631 210.949 151.233 211.591 152.026 211.917C152.81 212.263 153.624 212.254 154.469 211.889C155.313 211.524 155.886 210.935 156.185 210.121C156.477 209.327 156.416 208.451 156.003 207.494C155.59 206.536 154.991 205.885 154.207 205.539C153.415 205.213 152.596 205.232 151.752 205.597Z" fill="#47A3A0"/>
<path d="M131.45 209.091L133.251 216.274L135.333 209.35L136.805 208.981L141.824 214.149L140.017 206.943L143.163 206.154L146.172 218.157L142.535 219.069L136.959 213.092L134.616 221.054L131.358 221.871L128.305 209.879L131.45 209.091Z" fill="#47A3A0"/>
<path d="M104.795 213.666L104.817 208.054L108.152 208.067L108.141 210.735L116.835 210.768L116.846 208.1L120.181 208.113L120.159 213.725L119.653 213.723C118.886 213.735 118.356 214.186 118.061 215.074C117.766 215.962 117.577 217.226 117.494 218.867L117.317 223.144L106.53 223.102L106.566 213.673L104.795 213.666ZM114.252 218.601C114.303 217.344 114.407 216.317 114.563 215.52C114.704 214.724 114.975 214.119 115.375 213.707L110.154 213.686L110.129 220.172L114.177 220.188L114.252 218.601Z" fill="#47A3A0"/>
<path d="M89.8537 220.89L91.7521 208.663L95.2976 209.213L93.8509 218.532L97.7146 219.132L98.1635 216.99C98.4734 215.393 98.8319 214.084 99.239 213.061C99.6461 212.038 100.169 211.265 100.809 210.744C101.449 210.223 102.253 210.037 103.223 210.188C103.738 210.268 104.338 210.454 105.022 210.746L104.388 213.627C104.15 213.559 103.978 213.517 103.872 213.501C103.342 213.418 102.919 213.546 102.602 213.885C102.268 214.237 102.01 214.701 101.828 215.278C101.643 215.87 101.451 216.655 101.252 217.633L100.308 222.514L89.8537 220.89Z" fill="#47A3A0"/>
<path d="M74.9946 216.559L78.6808 204.747L81.7327 205.7L80.6775 209.081L83.2024 209.869L86.4971 207.186L90.1417 208.324L86.2353 211.345C86.9545 211.923 87.44 212.581 87.6918 213.318C87.9244 214.065 87.906 214.87 87.6365 215.734C87.2026 217.124 86.3714 218.038 85.1432 218.474C83.8957 218.92 82.3937 218.868 80.6372 218.32L74.9946 216.559ZM81.4415 215.511C82.1734 215.74 82.7707 215.782 83.2335 215.637C83.6817 215.488 83.9971 215.12 84.1798 214.535C84.3625 213.949 84.3216 213.463 84.0571 213.075C83.7734 212.697 83.2656 212.394 82.5338 212.166L79.9649 211.364L78.9166 214.723L81.4415 215.511Z" fill="#47A3A0"/>
<path d="M63.9667 197.361C65.1094 198.019 66.0052 198.845 66.6542 199.838C67.2822 200.837 67.6143 201.904 67.6504 203.04C67.6732 204.167 67.3785 205.263 66.7663 206.326C66.1541 207.389 65.3545 208.193 64.3674 208.74C63.3671 209.278 62.2813 209.52 61.1099 209.465C59.9176 209.415 58.7501 209.061 57.6074 208.403C56.478 207.753 55.6325 206.947 55.0709 205.987C54.4883 205.032 54.2569 204.005 54.3767 202.906L57.5344 203C57.5262 204.304 58.0469 205.259 59.0966 205.863C59.9071 206.33 60.7312 206.451 61.5688 206.225C62.4064 206 63.0892 205.429 63.6172 204.512C64.1452 203.595 64.2966 202.718 64.0712 201.881C63.8458 201.043 63.3278 200.391 62.5173 199.924C61.4543 199.312 60.3673 199.34 59.2562 200.01L57.6022 197.306C58.4773 196.677 59.4778 196.369 60.6037 196.38C61.7163 196.384 62.8373 196.711 63.9667 197.361Z" fill="#47A3A0"/>
<path d="M53.1816 190.015C54.2069 190.819 54.964 191.754 55.453 192.82C55.9204 193.889 56.0851 194.983 55.9471 196.103C55.8091 197.222 55.3614 198.264 54.6042 199.229C53.8469 200.194 52.9409 200.877 51.8861 201.277C50.8314 201.678 49.7343 201.772 48.5948 201.56C47.4337 201.35 46.3406 200.843 45.3152 200.038C44.2899 199.234 43.5436 198.297 43.0762 197.229C42.5993 196.172 42.4298 195.084 42.5678 193.965C42.7058 192.845 43.1535 191.803 43.9108 190.838C44.668 189.873 45.5741 189.19 46.6288 188.79C47.6835 188.39 48.7854 188.29 49.9344 188.49C51.0739 188.702 52.1563 189.21 53.1816 190.015ZM51.3641 192.331C50.6403 191.763 49.8599 191.54 49.0229 191.663C48.1644 191.788 47.4133 192.261 46.7696 193.081C46.1259 193.901 45.8499 194.737 45.9417 195.589C46.012 196.443 46.409 197.155 47.1327 197.722C47.8565 198.29 48.6476 198.512 49.5062 198.386C50.3553 198.273 51.1017 197.806 51.7453 196.986C52.389 196.166 52.6697 195.324 52.5874 194.46C52.4956 193.608 52.0878 192.899 51.3641 192.331Z" fill="#47A3A0"/>
<path d="M33.3426 187.629C32.5292 186.773 31.9941 185.854 31.7371 184.871C31.469 183.899 31.488 182.94 31.794 181.993C32.0895 181.035 32.6541 180.16 33.4877 179.368C34.3435 178.555 35.3055 178.042 36.3738 177.831C37.4204 177.619 38.4809 177.711 39.5555 178.107C40.6188 178.514 41.5995 179.19 42.4973 180.134C43.9867 181.701 44.6591 183.41 44.5144 185.261C44.348 187.112 43.2923 188.961 41.3472 190.81C39.5467 192.521 37.7432 193.495 35.9368 193.731C34.1087 193.966 32.2568 193.431 30.3812 192.125L25.4747 188.665L27.376 186.192L31.7071 189.247C32.879 190.079 33.936 190.524 34.8781 190.58C35.8097 190.626 36.7457 190.286 37.686 189.562C36.8939 189.574 36.128 189.413 35.3881 189.08C34.6371 188.757 33.9553 188.274 33.3426 187.629ZM40.4642 182.035C39.8304 181.368 39.1067 181.04 38.2929 181.052C37.4686 181.053 36.723 181.37 36.0562 182.004C35.3782 182.648 35.0345 183.366 35.0252 184.158C35.0054 184.938 35.3124 185.662 35.9461 186.329C36.5905 187.007 37.3081 187.361 38.0991 187.392C38.8901 187.423 39.6245 187.116 40.3025 186.472C40.9805 185.828 41.3355 185.088 41.3676 184.254C41.3886 183.43 41.0874 182.691 40.4642 182.035Z" fill="#47A3A0"/>
<path d="M23.7177 177.458C22.613 175.892 22.1405 174.424 22.3002 173.054C22.4473 171.693 23.2727 170.483 24.7764 169.422L30.5466 165.352L32.482 168.096L31.2227 168.985C32.5513 168.873 33.7459 169.569 34.8064 171.073C35.3544 171.85 35.7 172.619 35.8434 173.381C35.978 174.131 35.9195 174.819 35.668 175.447C35.4165 176.075 34.9962 176.596 34.4073 177.012C33.4675 177.674 32.4808 177.845 31.4471 177.523C30.4046 177.189 29.3619 176.283 28.319 174.804L26.6752 172.473C26.0362 172.924 25.6845 173.463 25.6201 174.09C25.5432 174.726 25.7788 175.432 26.3267 176.209C26.7067 176.748 27.17 177.219 27.7166 177.621C28.2419 178.02 28.7767 178.3 29.3212 178.46L28.0149 180.957C27.2376 180.68 26.4729 180.234 25.7208 179.62C24.9598 178.993 24.2921 178.273 23.7177 177.458ZM32.3159 171.732C31.9624 171.231 31.5359 170.865 31.0364 170.636C30.5243 170.415 29.9853 170.383 29.4193 170.538L28.3856 171.267L29.804 173.278C30.6525 174.481 31.4714 174.804 32.2608 174.247C32.6367 173.982 32.8358 173.626 32.858 173.179C32.859 172.728 32.6782 172.245 32.3159 171.732Z" fill="#47A3A0"/>
<path d="M22.4295 160.28L23.2746 161.941L27.4561 159.812L29.0837 163.01L18.056 168.623L16.4284 165.425L20.7124 163.245L19.836 161.523L14.0288 160.711L12.2969 157.308L19.5467 158.47L23.189 151.429L25.1087 155.2L22.4295 160.28Z" fill="#47A3A0"/>
<path d="M8.15872 145.987L7.31808 142.522L14.4705 140.787L5.89712 136.666L5.12155 133.47L17.1466 130.552L17.9873 134.017L10.8348 135.752L19.4028 139.85L20.1838 143.069L8.15872 145.987Z" fill="#47A3A0"/>
<path d="M9.69274 120.785C9.85373 120.031 10.1525 119.433 10.5889 118.992C11.024 118.536 11.5697 118.278 12.2262 118.217C13.0049 118.144 13.7167 118.348 14.3618 118.827C14.9915 119.307 15.51 119.999 15.917 120.9C16.3241 121.802 16.5822 122.84 16.6913 124.016C16.7806 124.978 16.7692 125.934 16.6571 126.883C16.5451 127.833 16.3275 128.723 16.0042 129.554L13.4186 128.824C13.9242 127.468 14.1039 126.004 13.958 124.431C13.88 123.592 13.697 122.946 13.4088 122.496C13.1039 122.031 12.7224 121.82 12.2644 121.863C11.8674 121.9 11.5853 122.095 11.418 122.45C11.2354 122.805 11.1739 123.304 11.2334 123.945L11.4672 126.464L9.24575 126.67L9.04169 124.472C8.98359 123.846 8.83971 123.374 8.61006 123.057C8.3804 122.739 8.07473 122.598 7.69303 122.634C7.29607 122.67 7.01056 122.912 6.83649 123.36C6.661 123.792 6.60939 124.397 6.68166 125.176C6.79219 126.367 7.1951 127.638 7.89037 128.991L5.49778 130.09C4.59095 128.45 4.06243 126.82 3.91222 125.202C3.80877 124.087 3.85407 123.082 4.04812 122.186C4.24075 121.275 4.58087 120.543 5.06847 119.99C5.54081 119.438 6.12814 119.129 6.83045 119.064C7.41063 119.01 7.95366 119.137 8.45955 119.444C8.95017 119.753 9.36124 120.2 9.69274 120.785Z" fill="#47A3A0"/>
<path d="M3.69365 105.751L4.15933 102.216L8.94795 102.847L9.65097 97.5111L4.86235 96.8802L5.33103 93.3229L17.599 94.9393L17.1303 98.4965L12.5469 97.8927L11.8439 103.229L16.4273 103.832L15.9616 107.367L3.69365 105.751Z" fill="#47A3A0"/>
<path d="M7.28415 84.8811C7.80648 83.037 8.65022 81.7461 9.81537 81.0084C10.9658 80.2664 12.4261 80.1462 14.1965 80.6476L20.9902 82.5719L20.0751 85.8028L18.5924 85.3829C19.5151 86.3454 19.7256 87.7118 19.2242 89.4822C18.9651 90.3969 18.5846 91.1497 18.0826 91.7405C17.5847 92.3167 17.0127 92.7045 16.3666 92.9039C15.7204 93.1034 15.0506 93.1049 14.3572 92.9085C13.2508 92.5951 12.4974 91.9355 12.097 90.9297C11.7008 89.9091 11.7492 88.5283 12.2423 86.7875L13.0195 84.0434C12.2671 83.8303 11.627 83.896 11.0991 84.2405C10.5565 84.5809 10.1557 85.2084 9.89658 86.1231C9.7169 86.7575 9.64258 87.4137 9.67362 88.0918C9.69408 88.751 9.81338 89.3426 10.0315 89.8665L7.2684 90.4226C6.99492 89.6439 6.86023 88.7691 6.86432 87.7981C6.8726 86.8124 7.01254 85.8401 7.28415 84.8811ZM17.1451 87.961C17.3122 87.3709 17.3278 86.8095 17.1918 86.277C17.041 85.7403 16.7272 85.3008 16.2504 84.9586L15.0333 84.6138L14.3626 86.9817C13.9615 88.398 14.2256 89.2377 15.1551 89.501C15.5977 89.6263 15.9998 89.557 16.3614 89.2929C16.7125 89.0098 16.9737 88.5659 17.1451 87.961Z" fill="#47A3A0"/>
<path d="M17.5056 66.5019L15.8319 70.3387L24.4753 74.1092L23.0499 77.3768L14.4065 73.6063L12.7327 77.4431L10.0343 76.266L14.8072 65.3247L17.5056 66.5019Z" fill="#47A3A0"/>
<path d="M22.7755 51.7002L31.1128 63.2847C32.0386 64.5087 32.5322 65.6324 32.5936 66.6556C32.663 67.6657 32.3918 68.6756 31.7801 69.6855C31.4465 70.2363 31.0316 70.7289 30.5354 71.1634C30.0391 71.5978 29.537 71.8942 29.0288 72.0525L27.5243 69.6084C27.8772 69.4995 28.204 69.3299 28.5047 69.0998C28.8134 68.8565 29.0591 68.584 29.2418 68.2824C29.496 67.8627 29.5977 67.4582 29.5467 67.0688C29.5089 66.6873 29.3174 66.2487 28.9724 65.7528L28.8979 65.6539L15.4589 63.779L17.3774 60.6118L26.3572 61.9906L20.988 54.651L22.7755 51.7002Z" fill="#47A3A0"/>
<path d="M28.9917 43.5913C29.7245 42.705 30.5957 42.0724 31.6053 41.6935C32.6128 41.2931 33.6598 41.1938 34.7463 41.3958C35.8209 41.5879 36.8487 42.0895 37.8295 42.9004C38.8103 43.7114 39.502 44.6314 39.9045 45.6606C40.2952 46.68 40.3945 47.727 40.2023 48.8016C40.0081 49.8547 39.5446 50.8243 38.8118 51.7106C37.8054 52.9278 36.63 53.5675 35.2854 53.6296L39.7346 57.3082L37.4483 60.0735L24.4729 49.3454L26.6566 46.7042L27.7556 47.6129C27.4951 46.2436 27.9071 44.903 28.9917 43.5913ZM36.1472 50.3133C36.7334 49.6043 36.9758 48.8298 36.8744 47.9899C36.771 47.1285 36.3175 46.3655 35.5139 45.7011C34.7103 45.0367 33.8816 44.7396 33.0279 44.8096C32.1721 44.8581 31.4511 45.2368 30.8649 45.9459C30.2786 46.6549 30.0373 47.4401 30.1407 48.3016C30.2421 49.1415 30.6946 49.8936 31.4982 50.558C32.3018 51.2224 33.1314 51.5304 33.9872 51.4819C34.841 51.4119 35.561 51.0223 36.1472 50.3133Z" fill="#47A3A0"/>
<path d="M38.7786 33.3603C40.2011 32.0756 41.6018 31.4304 42.9809 31.4247C44.3496 31.4075 45.6506 32.0817 46.8839 33.4473L51.6164 38.6876L49.1243 40.9382L48.0914 39.7946C48.3615 41.1002 47.8137 42.3697 46.4482 43.6029C45.7426 44.2401 45.0202 44.6755 44.281 44.9093C43.5531 45.1328 42.8624 45.1573 42.2091 44.9829C41.5557 44.8085 40.9875 44.4539 40.5045 43.9191C39.7337 43.0656 39.446 42.1065 39.6414 41.0416C39.8481 39.9665 40.6229 38.8226 41.9657 37.6099L44.0823 35.6984C43.5582 35.1181 42.981 34.8336 42.3507 34.8449C41.7102 34.8449 41.0372 35.1634 40.3317 35.8006C39.8423 36.2425 39.4306 36.7589 39.0966 37.3499C38.7636 37.9192 38.5503 38.4837 38.4567 39.0434L35.8205 38.0461C36.0026 37.2412 36.3534 36.4285 36.8728 35.6082C37.4037 34.7776 38.0389 34.0283 38.7786 33.3603ZM45.4953 41.2094C45.9505 40.7983 46.2619 40.3311 46.4297 39.8077C46.5872 39.2729 46.555 38.7338 46.3329 38.1906L45.4851 37.2518L43.6587 38.9012C42.5662 39.8878 42.3437 40.7395 42.9912 41.4565C43.2995 41.7978 43.677 41.9528 44.1237 41.9212C44.5715 41.868 45.0287 41.6308 45.4953 41.2094Z" fill="#47A3A0"/>
<path d="M56.9668 19.8696L63.8374 30.1609L60.8533 32.1531L55.6174 24.3103L52.3655 26.4813L53.483 28.3624C54.3345 29.7482 54.9562 30.9556 55.3481 31.9845C55.74 33.0134 55.8767 33.9361 55.7582 34.7527C55.6396 35.5693 55.1723 36.2501 54.3561 36.7949C53.9225 37.0844 53.355 37.3527 52.6534 37.5998L51.1718 35.0492C51.3929 34.9385 51.5481 34.8533 51.6373 34.7937C52.0837 34.4957 52.3088 34.115 52.3128 33.6514C52.321 33.1666 52.1973 32.65 51.9418 32.1015C51.6777 31.5404 51.2881 30.8325 50.773 29.9781L48.1676 25.7441L56.9668 19.8696Z" fill="#47A3A0"/>
<path d="M60.7983 17.6536L64.0277 16.1435L66.0736 20.5187L70.9489 18.239L68.903 13.8637L72.1532 12.3438L77.3947 23.5528L74.1445 25.0727L72.1863 20.8849L67.311 23.1647L69.2692 27.3525L66.0399 28.8626L60.7983 17.6536Z" fill="#47A3A0"/>
<path d="M82.9762 12.9482C84.531 12.5301 85.802 12.5494 86.7891 13.0061C87.7763 13.4628 88.4472 14.3263 88.8017 15.5964C89.1727 16.9255 89.0088 18.0777 88.31 19.0529C87.6111 20.028 86.4346 20.7465 84.7805 21.2082L78.9702 22.8063L75.6432 10.8879L79.0769 9.9294L80.1406 13.7397L82.9762 12.9482ZM87.916 7.46197L91.3497 6.50344L94.6767 18.4218L91.243 19.3803L87.916 7.46197ZM83.7839 18.8358C84.4526 18.665 84.923 18.3825 85.195 17.9882C85.467 17.5939 85.5205 17.1013 85.3556 16.5106C85.1948 15.9346 84.9001 15.5632 84.4715 15.3963C84.0576 15.2253 83.5089 15.2272 82.8254 15.4021L80.759 15.955L81.7237 19.4109L83.7839 18.8358Z" fill="#47A3A0"/>
<path d="M104.021 17.4648L100.9 13.9962L98.5353 18.0806L94.6497 18.5167L98.6857 11.7915L93.4293 6.202L97.4292 5.753L100.438 9.04897L102.709 5.16032L106.503 4.73441L102.607 11.2588L108.066 17.0107L104.021 17.4648Z" fill="#47A3A0"/>
<path d="M131.456 6.15245L130.028 18.4438L126.464 18.0299L127.552 8.66283L122.435 8.06843L121.347 17.4355L117.806 17.0242L119.233 4.73278L131.456 6.15245Z" fill="#47A3A0"/>
<path d="M142.706 8.68612C143.814 8.99112 144.749 9.52638 145.508 10.2919C146.286 11.0467 146.806 11.961 147.067 13.0347C147.333 14.0937 147.297 15.2367 146.959 16.4638C146.622 17.6909 146.066 18.6989 145.292 19.488C144.523 20.2623 143.608 20.7821 142.55 21.0474C141.509 21.302 140.435 21.2768 139.326 20.9718C137.803 20.5529 136.738 19.743 136.13 18.5421L134.599 24.1084L131.139 23.1568L135.605 6.92372L138.909 7.83262L138.531 9.20756C139.673 8.40853 141.064 8.23471 142.706 8.68612ZM139.508 17.9685C140.395 18.2125 141.201 18.1161 141.925 17.6793C142.669 17.2317 143.179 16.5053 143.455 15.5C143.732 14.4946 143.663 13.617 143.249 12.867C142.854 12.1063 142.213 11.604 141.326 11.36C140.439 11.116 139.624 11.2178 138.88 11.6653C138.156 12.1021 137.655 12.8232 137.379 13.8286C137.102 14.8339 137.162 15.7169 137.557 16.4776C137.971 17.2275 138.621 17.7245 139.508 17.9685Z" fill="#47A3A0"/>
<path d="M151.761 25.4688C150.57 24.9388 149.608 24.2166 148.873 23.3023C148.159 22.3802 147.732 21.3595 147.593 20.24C147.453 19.1205 147.633 18.0005 148.132 16.8798C148.631 15.7591 149.343 14.876 150.268 14.2305C151.193 13.5849 152.234 13.2259 153.391 13.1533C154.568 13.0731 155.752 13.2979 156.942 13.8279C158.133 14.358 159.086 15.084 159.8 16.0061C160.52 16.9141 160.95 17.9279 161.089 19.0474C161.229 20.1668 161.049 21.2869 160.55 22.4076C160.051 23.5282 159.339 24.4113 158.414 25.0569C157.489 25.7025 156.445 26.0685 155.282 26.155C154.125 26.2275 152.951 25.9988 151.761 25.4688ZM152.958 22.7792C153.798 23.1533 154.61 23.1787 155.391 22.8553C156.193 22.5242 156.806 21.8823 157.23 20.9297C157.654 19.9772 157.718 19.0992 157.421 18.2956C157.144 17.4844 156.586 16.8917 155.745 16.5175C154.905 16.1434 154.084 16.1219 153.282 16.4531C152.486 16.7702 151.876 17.4051 151.452 18.3576C151.028 19.3102 150.961 20.1952 151.252 21.0127C151.549 21.8162 152.117 22.4051 152.958 22.7792Z" fill="#47A3A0"/>
<path d="M172.666 33.7983L169.636 38.5221L166.829 36.7215L168.27 34.4758L160.952 29.7818L159.511 32.0275L156.704 30.2269L159.734 25.5032L160.16 25.7764C160.814 26.1774 161.503 26.0823 162.229 25.491C162.954 24.8997 163.792 23.9343 164.742 22.5947L167.187 19.0807L176.267 24.9047L171.176 32.8422L172.666 33.7983ZM167.335 24.5585C166.618 25.592 165.979 26.403 165.42 26.9913C164.873 27.5879 164.32 27.9529 163.761 28.0861L168.156 30.905L171.657 25.4455L168.25 23.26L167.335 24.5585Z" fill="#47A3A0"/>
<path d="M189.881 36.3042L177.02 42.4927C175.653 43.1907 174.461 43.4807 173.442 43.3627C172.436 43.2548 171.489 42.8116 170.601 42.0331C170.117 41.6084 169.704 41.1139 169.363 40.5495C169.022 39.9852 168.817 39.439 168.75 38.911L171.419 37.856C171.465 38.2224 171.575 38.5738 171.749 38.9101C171.935 39.2565 172.16 39.5459 172.425 39.7785C172.794 40.102 173.175 40.2727 173.567 40.2904C173.949 40.3197 174.415 40.2077 174.963 39.9545L175.074 39.8984L179.264 26.9926L182.048 29.4343L179.124 38.0358L187.288 34.0294L189.881 36.3042Z" fill="#47A3A0"/>
<path d="M189.533 47.4866L188.32 46.0726L184.759 49.1277L182.422 46.4045L191.814 38.3475L194.15 41.0707L190.502 44.2006L191.76 45.667L197.595 45.0856L200.081 47.9833L192.761 48.5654L190.884 56.2673L188.128 53.0554L189.533 47.4866Z" fill="#47A3A0"/>
<path d="M205.021 60.8813L202.748 57.3662L194.83 62.4866L192.894 59.493L200.813 54.3725L198.54 50.8574L201.012 49.2588L207.493 59.2827L205.021 60.8813Z" fill="#47A3A0"/>
<path d="M200.291 72.8792C199.739 71.6986 199.485 70.5224 199.53 69.3506C199.595 68.1861 199.941 67.1354 200.569 66.1984C201.198 65.2614 202.067 64.5331 203.178 64.0135C204.29 63.4939 205.406 63.2934 206.528 63.412C207.65 63.5306 208.671 63.9416 209.593 64.6448C210.535 65.3555 211.281 66.3012 211.833 67.4818C212.386 68.6624 212.629 69.835 212.564 70.9994C212.513 72.1573 212.174 73.2048 211.546 74.1418C210.917 75.0788 210.048 75.8071 208.936 76.3267C207.825 76.8463 206.709 77.0468 205.587 76.9282C204.465 76.8096 203.436 76.4019 202.501 75.7051C201.58 75.0018 200.843 74.0599 200.291 72.8792ZM202.958 71.6322C203.348 72.4656 203.944 73.0163 204.746 73.2843C205.569 73.5597 206.453 73.4765 207.397 73.0349C208.342 72.5932 208.965 71.9716 209.267 71.1701C209.59 70.376 209.556 69.5622 209.167 68.7289C208.777 67.8955 208.171 67.3411 207.348 67.0657C206.539 66.7838 205.662 66.8637 204.718 67.3053C203.773 67.747 203.143 68.3718 202.827 69.1798C202.525 69.9813 202.568 70.7988 202.958 71.6322Z" fill="#47A3A0"/>
<path d="M212.788 87.7626C212.736 89.2989 212.005 90.2782 210.595 90.7008C209.523 91.0221 208.572 90.8669 207.742 90.2351C206.913 89.6033 206.258 88.4869 205.778 86.8859L203.883 80.5627L215.737 77.0107L217.552 83.0695C217.997 84.553 218.073 85.7948 217.78 86.7948C217.502 87.7905 216.879 88.4336 215.909 88.7241C215.322 88.9002 214.754 88.9022 214.206 88.7302C213.678 88.5685 213.205 88.246 212.788 87.7626ZM211.812 81.6204L212.591 84.2202C212.952 85.4246 213.558 85.8991 214.41 85.6439C215.247 85.393 215.485 84.6653 215.125 83.4609L214.345 80.8611L211.812 81.6204ZM208.028 85.8997C208.406 87.1628 209.029 87.6646 209.896 87.4049C210.351 87.2684 210.637 87.0225 210.755 86.6671C210.887 86.3074 210.859 85.8117 210.67 85.1801L209.785 82.2278L207.163 83.0135L208.028 85.8997Z" fill="#47A3A0"/>
</svg>
