<svg width="49" height="48" viewBox="0 0 49 48" fill="none" xmlns="http://www.w3.org/2000/svg">
<path fill-rule="evenodd" clip-rule="evenodd" d="M48.0029 24C48.0029 37.2548 37.2578 48 24.0029 48C10.7481 48 0.00292969 37.2548 0.00292969 24C0.00292969 10.7452 10.7481 0 24.0029 0C37.2578 0 48.0029 10.7452 48.0029 24ZM24 9C19.926 9 19.416 9.017 17.816 9.09C16.219 9.163 15.128 9.417 14.174 9.788C13.174 10.164 12.267 10.754 11.517 11.518C10.7542 12.2671 10.1639 13.1735 9.787 14.174C9.418 15.128 9.163 16.22 9.09 17.817C9.018 19.416 9 19.925 9 24C9 28.075 9.017 28.584 9.09 30.184C9.163 31.781 9.417 32.872 9.788 33.826C10.164 34.826 10.754 35.733 11.518 36.483C12.2672 37.2458 13.1735 37.8361 14.174 38.213C15.128 38.583 16.219 38.837 17.816 38.91C19.416 38.983 19.926 39 24 39C28.074 39 28.584 38.983 30.184 38.91C31.781 38.837 32.872 38.583 33.826 38.212C34.826 37.836 35.733 37.246 36.483 36.482C37.2458 35.7329 37.8361 34.8265 38.213 33.826C38.583 32.872 38.837 31.781 38.91 30.184C38.983 28.584 39 28.074 39 24C39 19.926 38.983 19.416 38.91 17.816C38.837 16.219 38.583 15.128 38.212 14.174C37.8354 13.1731 37.245 12.2663 36.482 11.517C35.7329 10.7542 34.8265 10.1639 33.826 9.787C32.872 9.418 31.78 9.163 30.183 9.09C28.584 9.018 28.075 9 24 9ZM24 11.703C28.005 11.703 28.48 11.718 30.062 11.79C31.524 11.857 32.318 12.1 32.847 12.307C33.547 12.578 34.047 12.904 34.572 13.428C35.097 13.953 35.422 14.453 35.693 15.153C35.899 15.682 36.143 16.476 36.21 17.938C36.282 19.52 36.297 19.995 36.297 24C36.297 28.005 36.282 28.48 36.21 30.062C36.143 31.524 35.9 32.318 35.693 32.847C35.4529 33.4985 35.0699 34.088 34.572 34.572C34.0881 35.07 33.4986 35.4531 32.847 35.693C32.318 35.899 31.524 36.143 30.062 36.21C28.48 36.282 28.006 36.297 24 36.297C19.994 36.297 19.52 36.282 17.938 36.21C16.476 36.143 15.682 35.9 15.153 35.693C14.5015 35.4529 13.912 35.0699 13.428 34.572C12.9302 34.088 12.5471 33.4985 12.307 32.847C12.101 32.318 11.857 31.524 11.79 30.062C11.718 28.48 11.703 28.005 11.703 24C11.703 19.995 11.718 19.52 11.79 17.938C11.857 16.476 12.1 15.682 12.307 15.153C12.578 14.453 12.904 13.953 13.428 13.428C13.9119 12.93 14.5014 12.547 15.153 12.307C15.682 12.101 16.476 11.857 17.938 11.79C19.52 11.718 19.995 11.703 24 11.703ZM21.803 28.8118C22.4001 29.0631 23.0401 29.1925 23.6864 29.1925C24.9917 29.1925 26.2435 28.6656 27.1664 27.7277C28.0894 26.7899 28.6079 25.5179 28.6079 24.1915C28.6079 22.8652 28.0894 21.5932 27.1664 20.6553C26.2435 19.7175 24.9917 19.1906 23.6864 19.1906C23.0401 19.1906 22.4001 19.3199 21.803 19.5712C21.2059 19.8226 20.6634 20.1909 20.2064 20.6553C19.7493 21.1197 19.3868 21.671 19.1395 22.2777C18.8922 22.8845 18.7649 23.5348 18.7649 24.1915C18.7649 24.8483 18.8922 25.4986 19.1395 26.1053C19.3868 26.712 19.7493 27.2633 20.2064 27.7277C20.6634 28.1921 21.2059 28.5605 21.803 28.8118ZM18.3255 18.7441C19.7473 17.2994 21.6757 16.4878 23.6864 16.4878C25.6971 16.4878 27.6255 17.2994 29.0473 18.7441C30.4691 20.1889 31.2678 22.1484 31.2678 24.1915C31.2678 26.2347 30.4691 28.1942 29.0473 29.6389C27.6255 31.0836 25.6971 31.8953 23.6864 31.8953C21.6757 31.8953 19.7473 31.0836 18.3255 29.6389C16.9037 28.1942 16.105 26.2347 16.105 24.1915C16.105 22.1484 16.9037 20.1889 18.3255 18.7441ZM32.9485 17.6355C33.2846 17.294 33.4734 16.8308 33.4734 16.3479C33.4734 15.8649 33.2846 15.4017 32.9485 15.0602C32.6124 14.7187 32.1566 14.5269 31.6813 14.5269C31.206 14.5269 30.7502 14.7187 30.4141 15.0602C30.078 15.4017 29.8892 15.8649 29.8892 16.3479C29.8892 16.8308 30.078 17.294 30.4141 17.6355C30.7502 17.977 31.206 18.1689 31.6813 18.1689C32.1566 18.1689 32.6124 17.977 32.9485 17.6355Z" fill="#47A3A0"/>
</svg>
