<svg width="253" height="91" viewBox="0 0 253 91" fill="none" xmlns="http://www.w3.org/2000/svg">
<path d="M14.7995 66H11.6711C9.62567 66 8.30214 65.638 7.70053 65.0347C7.45989 64.4314 7.21925 62.5009 7.21925 59.1225C7.21925 55.7441 7.21925 48.8665 7.21925 38.6106C7.21925 28.3547 7.21925 22.2011 7.21925 20.0293C7.21925 17.9781 7.21925 16.5302 7.09893 15.9269C6.97861 15.3236 6.49733 14.841 5.89572 14.7203C5.29412 14.5996 4.57219 14.479 3.85027 14.479C3.00802 14.479 2.2861 14.479 1.80481 14.3583C1.32353 14.2377 0.962567 14.117 0.721925 13.755C0.240642 13.0311 0 11.7038 0 9.89397C0 9.04936 0 7.72212 0.120321 6.03291C0.240642 4.34369 0.360963 3.13711 0.481283 2.41316C0.721925 0.965265 1.92513 0.120658 4.09091 0C4.57219 0 5.29412 0 6.25668 0C15.8824 0 21.2968 0.482633 22.5 1.4479C23.1016 2.17185 23.4626 3.7404 23.4626 6.51554C23.4626 9.53199 23.1016 17.0128 22.3797 28.7166C21.6578 40.4205 21.2968 47.298 21.2968 49.3492C21.2968 51.2797 21.5374 52.4863 21.8984 52.7276C22.6203 52.8483 23.7032 52.8483 25.1471 52.8483C26.5909 52.8483 29.1176 52.7276 32.4866 52.6069C35.8556 52.3656 38.5027 52.3656 40.1872 52.245C41.992 52.245 43.0749 52.3656 43.5562 52.4863C44.5187 52.9689 45 54.5375 45 57.192C45 58.2779 44.8797 59.7258 44.639 61.5356C44.3984 63.3455 44.1578 64.5521 43.6765 64.9141C43.1952 65.276 42.7139 65.638 42.1123 65.638C40.7888 65.8793 31.6444 66 14.7995 66Z" fill="#47A3A0"/>
<path d="M122.469 88.9747C118.265 90.909 113.821 91.5135 109.137 90.5463C104.452 89.5792 100.729 87.4031 98.2067 83.7763C95.5642 80.1495 94.1229 77.0063 93.7626 74.1049C93.4022 71.2034 93.8827 69.6318 94.9637 69.2692C96.1648 68.9065 97.9665 68.6647 100.369 68.1811C102.771 67.8184 104.452 67.5767 105.413 67.3349C106.254 67.3349 106.855 68.4229 106.975 70.599C107.215 72.6542 107.695 74.5884 108.656 76.2809C109.617 77.9734 111.299 78.9406 113.941 79.0615C116.584 79.1824 118.385 78.2152 119.466 76.0392C120.547 73.984 121.028 71.4452 120.908 68.4229C120.788 65.4006 120.668 62.4991 120.547 59.7186C118.145 62.0156 115.263 63.3454 112.019 63.7081C110.818 63.829 109.257 63.9499 107.215 63.9499C104.693 63.9499 102.411 63.3454 100.609 62.1365C98.6871 60.9275 97.2458 59.3559 96.1648 57.4216C95.0838 55.4874 94.3631 53.1904 94.1229 50.7725C93.8827 48.5965 93.6424 46.4204 93.5223 44.1234C93.4022 42.4309 93.4022 40.1339 93.4022 37.2325C93.4022 36.8698 93.4022 36.2654 93.4022 35.7818C93.4022 35.2982 93.0419 34.9355 92.3212 34.6938C91.6006 34.452 91.2402 34.0893 91.1201 33.7266C91.1201 33.6057 91 32.8804 91 31.5505C91 29.7372 91.1201 28.0446 91.2402 26.473C91.6006 24.0552 92.081 22.8463 92.9218 22.8463C95.6843 22.6045 98.4469 22.4836 100.969 22.4836C102.29 22.4836 103.371 22.4836 104.332 22.6045C105.293 22.7254 106.014 22.9671 106.254 23.3298C106.494 23.6925 106.614 24.1761 106.614 24.6596C106.614 24.7805 106.614 25.0223 106.494 25.385C106.494 25.7477 106.374 26.9566 106.254 28.6491C106.014 31.5505 105.894 34.3311 105.894 36.9907C105.894 41.222 106.134 44.4861 106.735 46.904C107.335 49.8054 109.137 51.377 112.26 51.8606C113.461 51.8606 114.662 51.4979 115.863 50.7725C118.506 48.9591 120.067 46.1786 120.788 42.6727L120.908 38.5623L120.668 25.0223C120.307 22.6045 122.109 21.6373 126.073 22.1209C130.397 22.1209 132.799 22.2418 133.279 22.3627C133.76 22.4836 134 22.9671 134 23.8134C134 25.2641 134 27.9238 134 31.9132C134 41.1011 134 50.289 134 59.1141C134 68.0602 133.159 74.7093 131.358 79.3033C129.556 83.8972 126.673 86.9195 122.469 88.9747Z" fill="#47A3A0"/>
<path d="M179.253 66.8787C176.207 66.8787 174.257 66.8787 173.405 66.7574C172.552 66.636 171.943 66.5147 171.333 66.2721C170.48 65.4228 168.897 62.3897 166.46 57.0515C164.023 51.7132 162.561 48.6801 162.074 47.8309C161.586 46.9816 161.099 46.4963 160.855 46.4963C159.88 46.4963 158.54 47.5882 156.834 49.6507C155.129 51.7132 154.154 53.2904 153.91 54.5037C153.789 55.1103 153.667 56.9301 153.667 59.8419C153.545 62.7537 153.545 64.5735 153.423 65.3015C153.301 66.0294 153.179 66.5147 152.936 66.636C152.326 66.8787 150.255 67 146.722 67C144.163 67 142.579 66.8787 141.848 66.7574C141.117 66.636 140.63 66.2721 140.508 65.7868C140.508 65.7868 140.508 65.3015 140.508 64.4522C140.508 60.0846 140.874 45.2831 141.483 20.1691V19.3198C141.483 16.6507 141.239 15.1948 140.63 14.8309C140.264 14.7096 139.777 14.5882 139.29 14.4669C138.68 14.4669 138.071 14.2243 137.462 13.9816C136.975 13.739 136.731 13.1323 136.487 12.1618C136.122 10.9485 136 9.37132 136 7.30882C136 5.48897 136.122 4.27573 136.244 3.42646C136.609 2.21323 137.462 1.60661 138.68 1.48529L146.234 1.12132C148.428 1 150.133 1 151.595 1C153.667 1 155.007 1.12132 155.616 1.36396C156.225 1.60661 156.591 1.97058 156.713 2.21323C156.713 2.21323 156.713 2.45588 156.713 2.69852C156.713 4.15441 156.469 8.64338 156.103 16.4081C155.738 23.5662 155.494 27.6912 155.494 28.7831C155.494 29.6323 155.616 30.1176 155.86 30.1176C156.103 30.1176 156.469 29.875 157.078 29.2684C157.687 28.6618 159.393 25.75 162.561 20.5331C165.729 15.3162 168.287 10.8272 170.48 7.43014C172.674 4.03308 174.136 1.97058 174.745 1.60661C175.11 1.36396 175.476 1.36396 175.841 1.36396C176.207 1.36396 176.694 1.48529 177.182 1.72794C177.791 1.97058 179.375 2.81985 182.055 4.39705C184.736 5.97426 186.441 7.06617 187.416 7.67279C188.391 8.27941 188.878 8.88602 189 9.24999C188.756 9.85661 188.147 10.8272 187.051 12.1618C185.954 13.4963 183.152 17.136 178.644 23.2022C174.136 29.2684 171.821 32.4228 171.455 32.9081C171.333 33.2721 171.211 33.636 171.211 34C171.211 34.1213 171.211 34.364 171.333 34.7279C171.333 35.0919 171.821 36.0625 172.552 37.6397C173.283 39.2169 175.354 42.9779 178.522 49.0441C181.811 55.1103 183.761 58.9926 184.614 60.8125C185.467 62.6324 185.954 63.8456 186.198 64.5735C186.32 65.0588 186.441 65.4228 186.441 65.6654C186.441 65.7868 186.441 65.9081 186.32 66.1507C186.198 66.3934 185.71 66.5147 184.857 66.7574C184.005 67 182.055 66.8787 179.253 66.8787Z" fill="#47A3A0"/>
<path d="M237.267 66.9868C233.879 67.1089 230.974 66.3764 228.433 65.0333C225.891 63.5682 224.076 61.981 223.229 60.0275C222.381 58.074 221.897 55.7543 222.018 53.0682C222.139 50.3821 222.381 49.0391 222.866 48.917C223.35 48.917 225.407 48.917 228.675 48.917C232.063 48.917 233.879 49.1612 234 49.4054C234.121 49.5275 234.121 50.138 234.121 51.1147C234.121 52.0914 234.363 53.0682 234.847 54.167C235.331 55.2659 236.299 55.6322 237.63 55.5101C238.961 55.388 239.688 54.6554 239.688 53.1903C239.688 51.7252 239.082 50.6263 237.63 49.7717C236.299 48.917 234.605 47.9403 232.668 46.8414C230.732 45.7426 228.554 43.9112 226.254 41.3472C224.318 39.2717 223.229 36.5856 223.108 33.2891C222.866 29.9926 223.713 27.0623 225.891 24.4984C228.069 21.9344 231.337 20.3472 236.057 20.103C240.777 19.7367 244.286 20.3472 246.828 21.9344C249.369 23.3995 250.943 25.5972 251.79 28.2833C252.637 30.9693 253 32.6786 253 33.5333C253 34.8763 252.758 35.6089 252.274 35.853C251.79 36.0972 249.006 36.4635 244.044 37.074C242.955 37.074 242.229 37.074 242.108 36.9519C241.866 36.8298 241.624 36.0972 241.382 34.9984C241.14 32.1902 240.293 30.8472 238.598 31.0914C236.904 31.3356 236.178 32.0682 236.178 33.4112C236.178 34.6321 237.025 35.853 238.598 37.074C239.446 37.6844 241.382 39.2717 244.649 41.8356C246.344 43.0566 247.917 44.5217 249.248 46.1089C251.427 48.917 252.637 51.6031 252.758 54.4112C252.879 57.3415 252.153 59.7833 250.58 61.7368C249.006 63.6903 247.191 65.1554 245.134 66.0101C243.076 66.8647 240.535 66.8647 237.267 66.9868Z" fill="#47A3A0"/>
<path d="M88.762 64.5875C88.762 64.5875 83.6373 67 73.9981 67C64.3588 67 59.2342 64.5875 59.2342 64.5875C59.2342 64.5875 51.6692 36 73.9981 36C82.0511 36 86.1996 39.7393 88.2739 44.4436C87.0538 44.6848 86.0776 44.9261 86.0776 44.9261C86.0776 44.9261 70.3376 47.7004 70.9477 59.5214C72.4119 61.9339 75.7063 61.572 77.4145 59.5214C76.3164 56.144 78.2686 51.1984 87.9079 48.0623C88.3959 47.9416 88.884 47.7004 89.3721 47.5798C91.0803 55.5409 88.762 64.5875 88.762 64.5875Z" fill="#47A3A0"/>
<path d="M217.04 14.61C216.796 14.7301 216.431 14.7301 216.188 14.61C215.945 14.4899 215.701 14.1296 215.701 13.8894C215.58 12.0879 214.85 9.56582 213.146 8.72511C210.47 7.28391 207.063 8.00451 205.482 10.7668C203.048 14.7301 205.482 18.4532 207.307 20.9753L195.384 42.2331C192.342 42.113 187.84 41.9929 185.65 46.1964C184.191 49.0788 185.285 52.2014 187.962 53.7627C189.665 54.7235 192.22 54.0029 193.802 53.1622C194.045 53.0421 194.41 53.0421 194.654 53.1622C194.897 53.2823 195.14 53.6426 195.14 53.8828C195.262 55.6843 196.479 58.4466 198.182 59.4074C200.858 60.8486 204.143 59.5275 205.603 56.8853C207.672 53.1622 205.847 50.1597 203.657 47.3974L215.945 25.5391C219.473 25.8994 223.001 25.8994 225.191 22.1763C226.651 19.5341 226.164 16.0512 223.488 14.61C221.663 13.2889 218.621 13.7693 217.04 14.61Z" fill="#47A3A0"/>
<path d="M86.7819 24.08C86.5383 26 86.1729 27.56 85.6857 29C84.8331 31.52 83.737 33.56 82.3972 35C79.4741 32.84 75.5766 32.6 74.2368 32.72C74.1151 32.72 73.9933 32.72 73.9933 32.72C73.8715 32.72 73.8715 32.72 73.7497 32.72C72.4099 32.72 68.5124 32.84 65.5893 35C64.2495 33.56 63.1534 31.64 62.3008 29C61.8136 27.56 61.4482 25.88 61.2046 24.08C60.4738 17.72 61.9354 17 61.9354 17C61.9354 17 62.788 17.48 63.6405 17.96C64.2495 18.32 64.8585 18.68 65.3457 18.92C66.4419 19.4 67.9034 19.88 68.3906 20C68.8778 20.12 69.1214 20.48 69.1214 20.48C70.3394 19.52 72.2881 19.16 73.5061 19.04C73.7497 19.04 73.8715 19.04 74.115 19.04C74.2368 19.04 74.4804 19.04 74.6022 19.04C75.8202 19.16 77.7689 19.52 78.9869 20.48C78.9869 20.48 79.2305 20.12 79.7177 20C80.2049 19.88 81.6664 19.4 82.7626 18.92C83.2498 18.68 83.8588 18.32 84.4678 17.96C85.3203 17.48 86.1729 17 86.1729 17C86.1729 17 87.5127 17.72 86.7819 24.08Z" fill="#47A3A0"/>
</svg>
