<svg width="32" height="32" viewBox="0 0 32 32" fill="none" xmlns="http://www.w3.org/2000/svg">
<path d="M25.2151 32H6.746C5.71849 31.9998 4.70461 31.7651 3.78167 31.3136C2.85874 30.8622 2.05114 30.206 1.42048 29.3951C0.789815 28.5843 0.352746 27.6401 0.14261 26.6348C-0.0675258 25.6294 -0.0451783 24.5893 0.207948 23.5939L3.95101 8.32004C4.01843 8.04696 4.17738 7.8052 4.40141 7.63501C4.62543 7.46481 4.90102 7.37646 5.18228 7.38465H25.8061C26.0777 7.37222 26.3457 7.45 26.5685 7.60585C26.7912 7.76169 26.9561 7.98685 27.0374 8.24619L31.6916 23.2123C32.0098 24.2289 32.083 25.3062 31.9054 26.3564C31.7278 27.4066 31.3044 28.3999 30.6696 29.2554C30.0452 30.1145 29.2244 30.8119 28.2755 31.2893C27.3267 31.7668 26.2773 32.0105 25.2151 32V32ZM6.10574 9.84619L2.54736 24.1847C2.38891 24.8173 2.37621 25.4776 2.51023 26.1158C2.64425 26.7541 2.92149 27.3535 3.32104 27.8691C3.7206 28.3846 4.23203 28.8027 4.81679 29.0919C5.40155 29.3811 6.04436 29.5338 6.69675 29.5385H25.1658C25.8359 29.5396 26.4967 29.3817 27.0939 29.0779C27.691 28.7741 28.2076 28.333 28.6011 27.7908C29.0059 27.2455 29.276 26.6123 29.3894 25.9429C29.5028 25.2734 29.4563 24.5866 29.2536 23.9385L24.9196 9.84619H6.10574Z" fill="#47A3A0"/>
<path d="M20.8812 17.2308C20.5547 17.2308 20.2415 17.1011 20.0106 16.8703C19.7797 16.6395 19.65 16.3264 19.65 16V6.15385C19.65 5.17458 19.2608 4.23543 18.5681 3.54299C17.8754 2.85055 16.9358 2.46154 15.9562 2.46154C14.9765 2.46154 14.037 2.85055 13.3442 3.54299C12.6515 4.23543 12.2623 5.17458 12.2623 6.15385V16C12.2623 16.3264 12.1326 16.6395 11.9017 16.8703C11.6708 17.1011 11.3576 17.2308 11.0311 17.2308C10.7045 17.2308 10.3913 17.1011 10.1604 16.8703C9.92953 16.6395 9.7998 16.3264 9.7998 16V6.15385C9.7998 4.52174 10.4484 2.95649 11.603 1.80242C12.7575 0.64835 14.3234 0 15.9562 0C17.5889 0 19.1548 0.64835 20.3094 1.80242C21.4639 2.95649 22.1125 4.52174 22.1125 6.15385V16C22.1125 16.3264 21.9828 16.6395 21.7519 16.8703C21.521 17.1011 21.2078 17.2308 20.8812 17.2308Z" fill="#47A3A0"/>
</svg>
