<svg width="239" height="239" viewBox="0 0 239 239" fill="none" xmlns="http://www.w3.org/2000/svg">
<path d="M216.168 126.897C216.255 125.582 216.6 124.413 217.205 123.393C217.824 122.389 218.636 121.62 219.639 121.086C220.641 120.568 221.754 120.349 222.978 120.43C224.202 120.51 225.277 120.873 226.203 121.518C227.127 122.178 227.823 123.045 228.29 124.121C228.772 125.213 228.969 126.417 228.883 127.733C228.798 129.033 228.448 130.147 227.834 131.075C227.234 132.019 226.414 132.68 225.376 133.057L224.066 130.182C225.241 129.614 225.867 128.725 225.947 127.517C226.008 126.583 225.753 125.791 225.181 125.138C224.609 124.486 223.795 124.125 222.74 124.056C221.684 123.987 220.83 124.238 220.178 124.81C219.526 125.382 219.169 126.134 219.108 127.067C219.027 128.291 219.533 129.254 220.624 129.956L218.926 132.634C217.976 132.126 217.258 131.364 216.772 130.348C216.284 129.348 216.083 128.198 216.168 126.897Z" fill="#47A3A0"/>
<path d="M225.322 148.859L213.591 140.728C212.309 139.884 211.469 138.99 211.069 138.046C210.666 137.117 210.583 136.075 210.822 134.919C210.953 134.288 211.179 133.685 211.501 133.11C211.824 132.534 212.198 132.087 212.624 131.768L214.859 133.568C214.563 133.789 214.312 134.058 214.105 134.376C213.896 134.708 213.755 135.047 213.684 135.392C213.584 135.873 213.624 136.288 213.802 136.638C213.965 136.985 214.292 137.334 214.783 137.686L214.887 137.755L228.179 135.029L227.43 138.655L218.506 140.358L226.02 145.48L225.322 148.859Z" fill="#47A3A0"/>
<path d="M210.144 154.845L214.632 153.57L212.005 149.649L213.324 145.968L217.586 152.552L224.919 150.292L223.562 154.081L219.278 155.332L221.77 159.083L220.483 162.677L216.339 156.307L208.771 158.678L210.144 154.845Z" fill="#47A3A0"/>
<path d="M205.33 164.911C205.938 163.758 206.723 162.846 207.684 162.174C208.652 161.523 209.699 161.166 210.825 161.101C211.951 161.037 213.057 161.291 214.142 161.863C215.227 162.436 216.06 163.205 216.643 164.172C217.225 165.138 217.514 166.2 217.509 167.359C217.51 168.539 217.207 169.705 216.599 170.858C215.99 172.011 215.202 172.912 214.235 173.563C213.28 174.221 212.24 174.583 211.114 174.647C209.988 174.711 208.882 174.457 207.797 173.885C206.712 173.312 205.879 172.543 205.296 171.577C204.714 170.611 204.419 169.544 204.41 168.378C204.415 167.219 204.721 166.063 205.33 164.911ZM207.933 166.285C207.504 167.098 207.425 167.906 207.695 168.708C207.972 169.53 208.571 170.184 209.493 170.671C210.416 171.158 211.287 171.28 212.109 171.037C212.937 170.815 213.566 170.298 213.995 169.484C214.424 168.67 214.501 167.852 214.224 167.03C213.961 166.215 213.368 165.564 212.446 165.077C211.524 164.591 210.645 164.465 209.81 164.7C208.988 164.943 208.363 165.471 207.933 166.285Z" fill="#47A3A0"/>
<path d="M211.417 179.662L209.299 182.529L203.379 178.156L205.718 187.376L203.764 190.022L193.811 182.67L195.929 179.802L201.849 184.175L199.496 174.974L201.464 172.31L211.417 179.662ZM208.8 185.449C210.404 183.278 212.166 182.893 214.087 184.293L212.693 186.18C212.252 185.873 211.826 185.74 211.416 185.78C211.008 185.841 210.64 186.094 210.312 186.538C209.985 186.982 209.851 187.407 209.912 187.815C209.977 188.244 210.225 188.617 210.657 188.936L209.235 190.86C207.333 189.436 207.188 187.632 208.8 185.449Z" fill="#47A3A0"/>
<path d="M185.746 197.087L187.164 195.879L184.122 192.307L186.854 189.98L194.877 199.401L192.145 201.727L189.028 198.068L187.557 199.32L188.118 205.157L185.211 207.633L184.655 200.311L176.96 198.406L180.182 195.662L185.746 197.087Z" fill="#47A3A0"/>
<path d="M170.887 201.961C171.992 201.269 173.129 200.874 174.297 200.776C175.461 200.698 176.546 200.915 177.552 201.424C178.559 201.934 179.387 202.709 180.038 203.748C180.689 204.788 181.024 205.872 181.043 207C181.061 208.128 180.778 209.192 180.192 210.192C179.601 211.213 178.753 212.069 177.648 212.761C176.544 213.452 175.409 213.837 174.246 213.914C173.09 214.004 172.009 213.795 171.003 213.285C169.996 212.775 169.168 212.001 168.517 210.961C167.866 209.921 167.531 208.837 167.512 207.709C167.494 206.581 167.773 205.511 168.351 204.498C168.937 203.498 169.783 202.652 170.887 201.961ZM172.449 204.456C171.67 204.944 171.195 205.603 171.027 206.432C170.854 207.282 171.044 208.149 171.597 209.033C172.15 209.916 172.843 210.46 173.675 210.662C174.503 210.886 175.306 210.754 176.086 210.265C176.866 209.777 177.343 209.108 177.516 208.258C177.697 207.421 177.511 206.56 176.958 205.677C176.405 204.793 175.708 204.243 174.868 204.027C174.035 203.825 173.229 203.968 172.449 204.456Z" fill="#47A3A0"/>
<path d="M162.066 220.838C161.01 221.294 159.946 221.461 158.875 221.339C157.795 221.237 156.818 220.849 155.942 220.175C155.073 219.515 154.386 218.601 153.881 217.433C153.377 216.264 153.179 215.13 153.289 214.031C153.405 212.945 153.793 211.967 154.453 211.098C155.105 210.249 155.959 209.596 157.014 209.14C158.464 208.514 159.802 208.479 161.028 209.035L158.739 203.735L162.033 202.313L168.707 217.77L165.561 219.128L164.996 217.819C164.605 219.157 163.628 220.163 162.066 220.838ZM158.752 211.597C157.907 211.961 157.339 212.541 157.047 213.335C156.747 214.149 156.804 215.035 157.217 215.992C157.631 216.949 158.233 217.591 159.026 217.917C159.81 218.263 160.624 218.254 161.469 217.889C162.313 217.524 162.886 216.935 163.185 216.121C163.477 215.327 163.416 214.451 163.003 213.494C162.59 212.536 161.991 211.885 161.207 211.539C160.415 211.213 159.596 211.232 158.752 211.597Z" fill="#47A3A0"/>
<path d="M138.45 215.091L140.251 222.274L142.333 215.35L143.805 214.981L148.824 220.149L147.017 212.943L150.163 212.154L153.172 224.157L149.535 225.069L143.959 219.092L141.616 227.054L138.358 227.871L135.305 215.879L138.45 215.091Z" fill="#47A3A0"/>
<path d="M111.795 219.666L111.817 214.054L115.152 214.067L115.141 216.735L123.835 216.768L123.846 214.1L127.181 214.113L127.159 219.725L126.653 219.723C125.886 219.735 125.356 220.186 125.061 221.074C124.766 221.962 124.577 223.226 124.494 224.867L124.317 229.144L113.53 229.102L113.566 219.673L111.795 219.666ZM121.252 224.601C121.303 223.344 121.407 222.317 121.563 221.52C121.704 220.724 121.975 220.119 122.375 219.707L117.154 219.686L117.129 226.172L121.177 226.188L121.252 224.601Z" fill="#47A3A0"/>
<path d="M96.8537 226.89L98.7521 214.663L102.298 215.213L100.851 224.532L104.715 225.132L105.163 222.99C105.473 221.393 105.832 220.084 106.239 219.061C106.646 218.038 107.169 217.265 107.809 216.744C108.449 216.223 109.253 216.037 110.223 216.188C110.738 216.268 111.338 216.454 112.022 216.746L111.388 219.627C111.15 219.559 110.978 219.517 110.872 219.501C110.342 219.418 109.919 219.546 109.602 219.885C109.268 220.237 109.01 220.701 108.828 221.278C108.643 221.87 108.451 222.655 108.252 223.633L107.308 228.514L96.8537 226.89Z" fill="#47A3A0"/>
<path d="M81.9946 222.559L85.6808 210.747L88.7327 211.7L87.6775 215.081L90.2024 215.869L93.4971 213.186L97.1417 214.324L93.2353 217.345C93.9545 217.923 94.44 218.581 94.6918 219.318C94.9244 220.065 94.906 220.87 94.6365 221.734C94.2026 223.124 93.3714 224.038 92.1432 224.474C90.8957 224.92 89.3937 224.868 87.6372 224.32L81.9946 222.559ZM88.4415 221.511C89.1734 221.74 89.7707 221.782 90.2335 221.637C90.6817 221.488 90.9971 221.12 91.1798 220.535C91.3625 219.949 91.3216 219.463 91.0571 219.075C90.7734 218.697 90.2656 218.394 89.5338 218.166L86.9649 217.364L85.9166 220.723L88.4415 221.511Z" fill="#47A3A0"/>
<path d="M70.9667 203.361C72.1094 204.019 73.0052 204.845 73.6542 205.838C74.2822 206.837 74.6143 207.904 74.6504 209.04C74.6732 210.167 74.3785 211.263 73.7663 212.326C73.1541 213.389 72.3545 214.193 71.3674 214.74C70.3671 215.278 69.2813 215.52 68.1099 215.465C66.9176 215.415 65.7501 215.061 64.6074 214.403C63.478 213.753 62.6325 212.947 62.0709 211.987C61.4883 211.032 61.2569 210.005 61.3767 208.906L64.5344 209C64.5262 210.304 65.0469 211.259 66.0966 211.863C66.9071 212.33 67.7312 212.451 68.5688 212.225C69.4064 212 70.0892 211.429 70.6172 210.512C71.1452 209.595 71.2966 208.718 71.0712 207.881C70.8458 207.043 70.3278 206.391 69.5173 205.924C68.4543 205.312 67.3673 205.34 66.2562 206.01L64.6022 203.306C65.4773 202.677 66.4778 202.369 67.6037 202.38C68.7163 202.384 69.8373 202.711 70.9667 203.361Z" fill="#47A3A0"/>
<path d="M60.1816 196.015C61.2069 196.819 61.964 197.754 62.453 198.82C62.9204 199.889 63.0851 200.983 62.9471 202.103C62.8091 203.222 62.3614 204.264 61.6042 205.229C60.8469 206.194 59.9409 206.877 58.8861 207.277C57.8314 207.678 56.7343 207.772 55.5948 207.56C54.4337 207.35 53.3406 206.843 52.3152 206.038C51.2899 205.234 50.5436 204.297 50.0762 203.229C49.5993 202.172 49.4298 201.084 49.5678 199.965C49.7058 198.845 50.1535 197.803 50.9108 196.838C51.668 195.873 52.5741 195.19 53.6288 194.79C54.6835 194.39 55.7854 194.29 56.9344 194.49C58.0739 194.702 59.1563 195.21 60.1816 196.015ZM58.3641 198.331C57.6403 197.763 56.8599 197.54 56.0229 197.663C55.1644 197.788 54.4133 198.261 53.7696 199.081C53.1259 199.901 52.8499 200.737 52.9417 201.589C53.012 202.443 53.409 203.155 54.1327 203.722C54.8565 204.29 55.6476 204.512 56.5062 204.386C57.3553 204.273 58.1017 203.806 58.7453 202.986C59.389 202.166 59.6697 201.324 59.5874 200.46C59.4956 199.608 59.0878 198.899 58.3641 198.331Z" fill="#47A3A0"/>
<path d="M40.3426 193.629C39.5292 192.773 38.9941 191.854 38.7371 190.871C38.469 189.899 38.488 188.94 38.794 187.993C39.0895 187.035 39.6541 186.16 40.4877 185.368C41.3435 184.555 42.3055 184.042 43.3738 183.831C44.4204 183.619 45.4809 183.711 46.5555 184.107C47.6188 184.514 48.5995 185.19 49.4973 186.134C50.9867 187.701 51.6591 189.41 51.5144 191.261C51.348 193.112 50.2923 194.961 48.3472 196.81C46.5467 198.521 44.7432 199.495 42.9368 199.731C41.1087 199.966 39.2568 199.431 37.3812 198.125L32.4747 194.665L34.376 192.192L38.7071 195.247C39.879 196.079 40.936 196.524 41.8781 196.58C42.8097 196.626 43.7457 196.286 44.686 195.562C43.8939 195.574 43.128 195.413 42.3881 195.08C41.6371 194.757 40.9553 194.274 40.3426 193.629ZM47.4642 188.035C46.8304 187.368 46.1067 187.04 45.2929 187.052C44.4686 187.053 43.723 187.37 43.0562 188.004C42.3782 188.648 42.0345 189.366 42.0252 190.158C42.0054 190.938 42.3124 191.662 42.9461 192.329C43.5905 193.007 44.3081 193.361 45.0991 193.392C45.8901 193.423 46.6245 193.116 47.3025 192.472C47.9805 191.828 48.3355 191.088 48.3676 190.254C48.3886 189.43 48.0874 188.691 47.4642 188.035Z" fill="#47A3A0"/>
<path d="M30.7177 183.458C29.613 181.892 29.1405 180.424 29.3002 179.054C29.4473 177.693 30.2727 176.483 31.7764 175.422L37.5466 171.352L39.482 174.096L38.2227 174.985C39.5513 174.873 40.7459 175.569 41.8064 177.073C42.3544 177.85 42.7 178.619 42.8434 179.381C42.978 180.131 42.9195 180.819 42.668 181.447C42.4165 182.075 41.9962 182.596 41.4073 183.012C40.4675 183.674 39.4808 183.845 38.4471 183.523C37.4046 183.189 36.3619 182.283 35.319 180.804L33.6752 178.473C33.0362 178.924 32.6845 179.463 32.6201 180.09C32.5432 180.726 32.7788 181.432 33.3267 182.209C33.7067 182.748 34.17 183.219 34.7166 183.621C35.2419 184.02 35.7767 184.3 36.3212 184.46L35.0149 186.957C34.2376 186.68 33.4729 186.234 32.7208 185.62C31.9598 184.993 31.2921 184.273 30.7177 183.458ZM39.3159 177.732C38.9624 177.231 38.5359 176.865 38.0364 176.636C37.5243 176.415 36.9853 176.383 36.4193 176.538L35.3856 177.267L36.804 179.278C37.6525 180.481 38.4714 180.804 39.2608 180.247C39.6367 179.982 39.8358 179.626 39.858 179.179C39.859 178.728 39.6782 178.245 39.3159 177.732Z" fill="#47A3A0"/>
<path d="M29.4295 166.28L30.2746 167.941L34.4561 165.812L36.0837 169.01L25.056 174.623L23.4284 171.425L27.7124 169.245L26.836 167.523L21.0288 166.711L19.2969 163.308L26.5467 164.47L30.189 157.429L32.1087 161.2L29.4295 166.28Z" fill="#47A3A0"/>
<path d="M15.1587 151.987L14.3181 148.522L21.4705 146.787L12.8971 142.666L12.1216 139.47L24.1466 136.552L24.9873 140.017L17.8348 141.752L26.4028 145.85L27.1838 149.069L15.1587 151.987Z" fill="#47A3A0"/>
<path d="M16.6927 126.785C16.8537 126.031 17.1525 125.433 17.5889 124.992C18.024 124.536 18.5697 124.278 19.2262 124.217C20.0049 124.144 20.7167 124.348 21.3618 124.827C21.9915 125.307 22.51 125.999 22.917 126.9C23.3241 127.802 23.5822 128.84 23.6913 130.016C23.7806 130.978 23.7692 131.934 23.6571 132.883C23.5451 133.833 23.3275 134.723 23.0042 135.554L20.4186 134.824C20.9242 133.468 21.1039 132.004 20.958 130.431C20.88 129.592 20.697 128.946 20.4088 128.496C20.1039 128.031 19.7224 127.82 19.2644 127.863C18.8674 127.9 18.5853 128.095 18.418 128.45C18.2354 128.805 18.1739 129.304 18.2334 129.945L18.4672 132.464L16.2457 132.67L16.0417 130.472C15.9836 129.846 15.8397 129.374 15.6101 129.057C15.3804 128.739 15.0747 128.598 14.693 128.634C14.2961 128.67 14.0106 128.912 13.8365 129.36C13.661 129.792 13.6094 130.397 13.6817 131.176C13.7922 132.367 14.1951 133.638 14.8904 134.991L12.4978 136.09C11.5909 134.45 11.0624 132.82 10.9122 131.202C10.8088 130.087 10.8541 129.082 11.0481 128.186C11.2407 127.275 11.5809 126.543 12.0685 125.99C12.5408 125.438 13.1281 125.129 13.8305 125.064C14.4106 125.01 14.9537 125.137 15.4596 125.444C15.9502 125.753 16.3612 126.2 16.6927 126.785Z" fill="#47A3A0"/>
<path d="M10.6937 111.751L11.1593 108.216L15.9479 108.847L16.651 103.511L11.8624 102.88L12.331 99.3229L24.599 100.939L24.1303 104.497L19.5469 103.893L18.8439 109.229L23.4273 109.832L22.9616 113.367L10.6937 111.751Z" fill="#47A3A0"/>
<path d="M14.2842 90.8811C14.8065 89.037 15.6502 87.7461 16.8154 87.0084C17.9658 86.2664 19.4261 86.1462 21.1965 86.6476L27.9902 88.5719L27.0751 91.8028L25.5924 91.3829C26.5151 92.3454 26.7256 93.7118 26.2242 95.4822C25.9651 96.3969 25.5846 97.1497 25.0826 97.7405C24.5847 98.3167 24.0127 98.7045 23.3666 98.9039C22.7204 99.1034 22.0506 99.1049 21.3572 98.9085C20.2508 98.5951 19.4974 97.9355 19.097 96.9297C18.7008 95.9091 18.7492 94.5283 19.2423 92.7875L20.0195 90.0434C19.2671 89.8303 18.627 89.896 18.0991 90.2405C17.5565 90.5809 17.1557 91.2084 16.8966 92.1231C16.7169 92.7575 16.6426 93.4137 16.6736 94.0918C16.6941 94.751 16.8134 95.3426 17.0315 95.8665L14.2684 96.4226C13.9949 95.6439 13.8602 94.7691 13.8643 93.7981C13.8726 92.8124 14.0125 91.8401 14.2842 90.8811ZM24.1451 93.961C24.3122 93.3709 24.3278 92.8095 24.1918 92.277C24.041 91.7403 23.7272 91.3008 23.2504 90.9586L22.0333 90.6138L21.3626 92.9817C20.9615 94.398 21.2256 95.2377 22.1551 95.501C22.5977 95.6263 22.9998 95.557 23.3614 95.2929C23.7125 95.0098 23.9737 94.5659 24.1451 93.961Z" fill="#47A3A0"/>
<path d="M24.5056 72.5019L22.8319 76.3387L31.4753 80.1092L30.0499 83.3768L21.4065 79.6063L19.7327 83.4431L17.0343 82.266L21.8072 71.3247L24.5056 72.5019Z" fill="#47A3A0"/>
<path d="M29.7755 57.7002L38.1128 69.2847C39.0386 70.5087 39.5322 71.6324 39.5936 72.6556C39.663 73.6657 39.3918 74.6756 38.7801 75.6855C38.4465 76.2363 38.0316 76.7289 37.5354 77.1634C37.0391 77.5978 36.537 77.8942 36.0288 78.0525L34.5243 75.6084C34.8772 75.4995 35.204 75.3299 35.5047 75.0998C35.8134 74.8565 36.0591 74.584 36.2418 74.2824C36.496 73.8627 36.5977 73.4582 36.5467 73.0688C36.5089 72.6873 36.3174 72.2487 35.9724 71.7528L35.8979 71.6539L22.4589 69.779L24.3774 66.6118L33.3572 67.9906L27.988 60.651L29.7755 57.7002Z" fill="#47A3A0"/>
<path d="M35.9917 49.5913C36.7245 48.705 37.5957 48.0724 38.6053 47.6935C39.6128 47.2931 40.6598 47.1938 41.7463 47.3958C42.8209 47.5879 43.8487 48.0895 44.8295 48.9004C45.8103 49.7114 46.502 50.6314 46.9045 51.6606C47.2952 52.68 47.3945 53.727 47.2023 54.8016C47.0081 55.8547 46.5446 56.8243 45.8118 57.7106C44.8054 58.9278 43.63 59.5675 42.2854 59.6296L46.7346 63.3082L44.4483 66.0735L31.4729 55.3454L33.6566 52.7042L34.7556 53.6129C34.4951 52.2436 34.9071 50.903 35.9917 49.5913ZM43.1472 56.3133C43.7334 55.6043 43.9758 54.8298 43.8744 53.9899C43.771 53.1285 43.3175 52.3655 42.5139 51.7011C41.7103 51.0367 40.8816 50.7396 40.0279 50.8096C39.1721 50.8581 38.4511 51.2368 37.8649 51.9459C37.2786 52.6549 37.0373 53.4401 37.1407 54.3016C37.2421 55.1415 37.6946 55.8936 38.4982 56.558C39.3018 57.2224 40.1314 57.5304 40.9872 57.4819C41.841 57.4119 42.561 57.0223 43.1472 56.3133Z" fill="#47A3A0"/>
<path d="M45.7786 39.3603C47.2011 38.0756 48.6018 37.4304 49.9809 37.4247C51.3496 37.4075 52.6506 38.0817 53.8839 39.4473L58.6164 44.6876L56.1243 46.9382L55.0914 45.7946C55.3615 47.1002 54.8137 48.3697 53.4482 49.6029C52.7426 50.2401 52.0202 50.6755 51.281 50.9093C50.5531 51.1328 49.8624 51.1573 49.2091 50.9829C48.5557 50.8085 47.9875 50.4539 47.5045 49.9191C46.7337 49.0656 46.446 48.1065 46.6414 47.0416C46.8481 45.9665 47.6229 44.8226 48.9657 43.6099L51.0823 41.6984C50.5582 41.1181 49.981 40.8336 49.3507 40.8449C48.7102 40.8449 48.0372 41.1634 47.3317 41.8006C46.8423 42.2425 46.4306 42.7589 46.0966 43.3499C45.7636 43.9192 45.5503 44.4837 45.4567 45.0434L42.8205 44.0461C43.0026 43.2412 43.3534 42.4285 43.8728 41.6082C44.4037 40.7776 45.0389 40.0283 45.7786 39.3603ZM52.4953 47.2094C52.9505 46.7983 53.2619 46.3311 53.4297 45.8077C53.5872 45.2729 53.555 44.7338 53.3329 44.1906L52.4851 43.2518L50.6587 44.9012C49.5662 45.8878 49.3437 46.7395 49.9912 47.4565C50.2995 47.7978 50.677 47.9528 51.1237 47.9212C51.5715 47.868 52.0287 47.6308 52.4953 47.2094Z" fill="#47A3A0"/>
<path d="M63.9668 25.8696L70.8374 36.1609L67.8533 38.1531L62.6174 30.3103L59.3655 32.4813L60.483 34.3624C61.3345 35.7482 61.9562 36.9556 62.3481 37.9845C62.74 39.0134 62.8767 39.9361 62.7582 40.7527C62.6396 41.5693 62.1723 42.2501 61.3561 42.7949C60.9225 43.0844 60.355 43.3527 59.6534 43.5998L58.1718 41.0492C58.3929 40.9385 58.5481 40.8533 58.6373 40.7937C59.0837 40.4957 59.3088 40.115 59.3128 39.6514C59.321 39.1666 59.1973 38.65 58.9418 38.1015C58.6777 37.5404 58.2881 36.8325 57.773 35.9781L55.1676 31.7441L63.9668 25.8696Z" fill="#47A3A0"/>
<path d="M67.7983 23.6536L71.0277 22.1435L73.0736 26.5187L77.9489 24.239L75.903 19.8637L79.1532 18.3438L84.3947 29.5528L81.1445 31.0727L79.1863 26.8849L74.311 29.1647L76.2692 33.3525L73.0399 34.8626L67.7983 23.6536Z" fill="#47A3A0"/>
<path d="M89.9762 18.9482C91.531 18.5301 92.802 18.5494 93.7891 19.0061C94.7763 19.4628 95.4472 20.3263 95.8017 21.5964C96.1727 22.9255 96.0088 24.0777 95.31 25.0529C94.6111 26.028 93.4346 26.7465 91.7805 27.2082L85.9702 28.8063L82.6432 16.8879L86.0769 15.9294L87.1406 19.7397L89.9762 18.9482ZM94.916 13.462L98.3497 12.5034L101.677 24.4218L98.243 25.3803L94.916 13.462ZM90.7839 24.8358C91.4526 24.665 91.923 24.3825 92.195 23.9882C92.467 23.5939 92.5205 23.1013 92.3556 22.5106C92.1948 21.9346 91.9001 21.5632 91.4715 21.3963C91.0576 21.2253 90.5089 21.2272 89.8254 21.4021L87.759 21.955L88.7237 25.4109L90.7839 24.8358Z" fill="#47A3A0"/>
<path d="M111.021 23.4648L107.9 19.9962L105.535 24.0806L101.65 24.5167L105.686 17.7915L100.429 12.202L104.429 11.753L107.438 15.049L109.709 11.1603L113.503 10.7344L109.607 17.2588L115.066 23.0107L111.021 23.4648Z" fill="#47A3A0"/>
<path d="M138.456 12.1524L137.028 24.4438L133.464 24.0299L134.552 14.6628L129.435 14.0684L128.347 23.4355L124.806 23.0242L126.233 10.7328L138.456 12.1524Z" fill="#47A3A0"/>
<path d="M149.706 14.6861C150.814 14.9911 151.749 15.5264 152.508 16.2919C153.286 17.0467 153.806 17.961 154.067 19.0347C154.333 20.0937 154.297 21.2367 153.959 22.4638C153.622 23.6909 153.066 24.6989 152.292 25.488C151.523 26.2623 150.608 26.7821 149.55 27.0474C148.509 27.302 147.435 27.2768 146.326 26.9718C144.803 26.5529 143.738 25.743 143.13 24.5421L141.599 30.1084L138.139 29.1568L142.605 12.9237L145.909 13.8326L145.531 15.2076C146.673 14.4085 148.064 14.2347 149.706 14.6861ZM146.508 23.9685C147.395 24.2125 148.201 24.1161 148.925 23.6793C149.669 23.2317 150.179 22.5053 150.455 21.5C150.732 20.4946 150.663 19.617 150.249 18.867C149.854 18.1063 149.213 17.604 148.326 17.36C147.439 17.116 146.624 17.2178 145.88 17.6653C145.156 18.1021 144.655 18.8232 144.379 19.8286C144.102 20.8339 144.162 21.7169 144.557 22.4776C144.971 23.2275 145.621 23.7245 146.508 23.9685Z" fill="#47A3A0"/>
<path d="M158.761 31.4688C157.57 30.9388 156.608 30.2166 155.873 29.3023C155.159 28.3802 154.732 27.3595 154.593 26.24C154.453 25.1205 154.633 24.0005 155.132 22.8798C155.631 21.7591 156.343 20.876 157.268 20.2305C158.193 19.5849 159.234 19.2259 160.391 19.1533C161.568 19.0731 162.752 19.2979 163.942 19.8279C165.133 20.358 166.086 21.084 166.8 22.0061C167.52 22.9141 167.95 23.9279 168.089 25.0474C168.229 26.1668 168.049 27.2869 167.55 28.4076C167.051 29.5282 166.339 30.4113 165.414 31.0569C164.489 31.7025 163.445 32.0685 162.282 32.155C161.125 32.2275 159.951 31.9988 158.761 31.4688ZM159.958 28.7792C160.798 29.1533 161.61 29.1787 162.391 28.8553C163.193 28.5242 163.806 27.8823 164.23 26.9297C164.654 25.9772 164.718 25.0992 164.421 24.2956C164.144 23.4844 163.586 22.8917 162.745 22.5175C161.905 22.1434 161.084 22.1219 160.282 22.4531C159.486 22.7702 158.876 23.4051 158.452 24.3576C158.028 25.3102 157.961 26.1952 158.252 27.0127C158.549 27.8162 159.117 28.4051 159.958 28.7792Z" fill="#47A3A0"/>
<path d="M179.666 39.7983L176.636 44.5221L173.829 42.7215L175.27 40.4758L167.952 35.7818L166.511 38.0275L163.704 36.2269L166.734 31.5032L167.16 31.7764C167.814 32.1774 168.503 32.0823 169.229 31.491C169.954 30.8997 170.792 29.9343 171.742 28.5947L174.187 25.0807L183.267 30.9047L178.176 38.8422L179.666 39.7983ZM174.335 30.5585C173.618 31.592 172.979 32.403 172.42 32.9913C171.873 33.5879 171.32 33.9529 170.761 34.0861L175.156 36.905L178.657 31.4455L175.25 29.26L174.335 30.5585Z" fill="#47A3A0"/>
<path d="M196.881 42.3042L184.02 48.4927C182.653 49.1907 181.461 49.4807 180.442 49.3627C179.436 49.2548 178.489 48.8116 177.601 48.0331C177.117 47.6084 176.704 47.1139 176.363 46.5495C176.022 45.9852 175.817 45.439 175.75 44.911L178.419 43.856C178.465 44.2224 178.575 44.5738 178.749 44.9101C178.935 45.2565 179.16 45.5459 179.425 45.7785C179.794 46.102 180.175 46.2727 180.567 46.2904C180.949 46.3197 181.415 46.2077 181.963 45.9545L182.074 45.8984L186.264 32.9926L189.048 35.4343L186.124 44.0358L194.288 40.0294L196.881 42.3042Z" fill="#47A3A0"/>
<path d="M196.533 53.4866L195.32 52.0726L191.759 55.1277L189.422 52.4045L198.814 44.3475L201.15 47.0707L197.502 50.2006L198.76 51.667L204.595 51.0856L207.081 53.9833L199.761 54.5654L197.884 62.2673L195.128 59.0554L196.533 53.4866Z" fill="#47A3A0"/>
<path d="M212.021 66.8813L209.748 63.3662L201.83 68.4866L199.894 65.493L207.813 60.3725L205.54 56.8574L208.012 55.2588L214.493 65.2827L212.021 66.8813Z" fill="#47A3A0"/>
<path d="M207.291 78.8792C206.739 77.6986 206.485 76.5224 206.53 75.3506C206.595 74.1861 206.941 73.1354 207.569 72.1984C208.198 71.2614 209.067 70.5331 210.178 70.0135C211.29 69.4939 212.406 69.2934 213.528 69.412C214.65 69.5306 215.671 69.9416 216.593 70.6448C217.535 71.3555 218.281 72.3012 218.833 73.4818C219.386 74.6624 219.629 75.835 219.564 76.9994C219.513 78.1573 219.174 79.2048 218.546 80.1418C217.917 81.0788 217.048 81.8071 215.936 82.3267C214.825 82.8463 213.709 83.0468 212.587 82.9282C211.465 82.8096 210.436 82.4019 209.501 81.7051C208.58 81.0018 207.843 80.0599 207.291 78.8792ZM209.958 77.6322C210.348 78.4656 210.944 79.0163 211.746 79.2843C212.569 79.5597 213.453 79.4765 214.397 79.0349C215.342 78.5932 215.965 77.9716 216.267 77.1701C216.59 76.376 216.556 75.5622 216.167 74.7289C215.777 73.8955 215.171 73.3411 214.348 73.0657C213.539 72.7838 212.662 72.8637 211.718 73.3053C210.773 73.747 210.143 74.3718 209.827 75.1798C209.525 75.9813 209.568 76.7988 209.958 77.6322Z" fill="#47A3A0"/>
<path d="M219.788 93.7626C219.736 95.2989 219.005 96.2782 217.595 96.7008C216.523 97.0221 215.572 96.8669 214.742 96.2351C213.913 95.6033 213.258 94.4869 212.778 92.8859L210.883 86.5627L222.737 83.0107L224.552 89.0695C224.997 90.553 225.073 91.7948 224.78 92.7948C224.502 93.7905 223.879 94.4336 222.909 94.7241C222.322 94.9002 221.754 94.9022 221.206 94.7302C220.678 94.5685 220.205 94.246 219.788 93.7626ZM218.812 87.6204L219.591 90.2202C219.952 91.4246 220.558 91.8991 221.41 91.6439C222.247 91.393 222.485 90.6653 222.125 89.4609L221.345 86.8611L218.812 87.6204ZM215.028 91.8997C215.406 93.1628 216.029 93.6646 216.896 93.4049C217.351 93.2684 217.637 93.0225 217.755 92.6671C217.887 92.3074 217.859 91.8117 217.67 91.1801L216.785 88.2278L214.163 89.0135L215.028 91.8997Z" fill="#47A3A0"/>
</svg>
