<svg width="49" height="48" viewBox="0 0 49 48" fill="none" xmlns="http://www.w3.org/2000/svg">
<path fill-rule="evenodd" clip-rule="evenodd" d="M48.0029 24C48.0029 37.2548 37.2578 48 24.0029 48C10.7481 48 0.00292969 37.2548 0.00292969 24C0.00292969 10.7452 10.7481 0 24.0029 0C37.2578 0 48.0029 10.7452 48.0029 24ZM24.8629 17.7179C22.5286 18.6888 17.8632 20.6984 10.8667 23.7467C9.73055 24.1985 9.1354 24.6405 9.08122 25.0726C8.98966 25.803 9.90431 26.0906 11.1498 26.4823C11.3193 26.5356 11.4948 26.5908 11.6748 26.6493C12.9002 27.0476 14.5485 27.5136 15.4055 27.5321C16.1828 27.5489 17.0503 27.2284 18.0082 26.5707C24.5452 22.158 27.9196 19.9277 28.1315 19.8796C28.281 19.8456 28.4881 19.803 28.6284 19.9277C28.7687 20.0525 28.7549 20.2887 28.7401 20.352C28.6495 20.7383 25.0591 24.0762 23.2011 25.8036C22.6219 26.3421 22.211 26.7241 22.127 26.8113C21.9389 27.0067 21.7471 27.1916 21.5628 27.3692C20.4244 28.4667 19.5707 29.2897 21.6101 30.6336C22.5901 31.2795 23.3744 31.8135 24.1567 32.3463C25.0112 32.9282 25.8634 33.5086 26.9661 34.2314C27.247 34.4155 27.5153 34.6068 27.7767 34.7931C28.771 35.502 29.6644 36.1389 30.7681 36.0373C31.4094 35.9783 32.0718 35.3753 32.4082 33.5768C33.2033 29.3263 34.7661 20.1169 35.1273 16.322C35.159 15.9895 35.1192 15.564 35.0872 15.3772C35.0552 15.1904 34.9884 14.9242 34.7456 14.7272C34.4581 14.4939 34.0142 14.4447 33.8156 14.4482C32.9129 14.4641 31.528 14.9457 24.8629 17.7179Z" fill="#47A3A0"/>
</svg>
