<svg width="49" height="48" viewBox="0 0 49 48" fill="none" xmlns="http://www.w3.org/2000/svg">
<path fill-rule="evenodd" clip-rule="evenodd" d="M24.0029 48C37.2578 48 48.0029 37.2548 48.0029 24C48.0029 10.7452 37.2578 0 24.0029 0C10.7481 0 0.00292969 10.7452 0.00292969 24C0.00292969 37.2548 10.7481 48 24.0029 48ZM9.12874 23.4738C9.13164 15.4935 15.8323 9 24.0658 9C28.0616 9.00097 31.8116 10.5102 34.6316 13.2462C37.4526 15.9813 39.0049 19.62 39.0029 23.4855C39 31.4658 32.2994 37.9603 24.0658 37.9603H24.06C21.5741 37.962 19.1248 37.3573 16.922 36.1979L9.00293 38.2105L11.1223 30.7102C9.81583 28.5165 9.1268 26.0258 9.12874 23.4738ZM24.061 35.5154H24.0649C30.9087 35.5154 36.4781 30.1182 36.481 23.4845C36.4829 20.2694 35.1929 17.2461 32.8481 14.9726C30.5033 12.699 27.3862 11.4459 24.0707 11.4449C17.2229 11.4449 11.6526 16.8401 11.6497 23.4738C11.6487 25.7487 12.3086 27.9743 13.5484 29.8768L13.8436 30.3315L12.5894 34.7715L17.2868 33.5777L17.7416 33.8387C19.6481 34.935 21.8333 35.5154 24.061 35.5154ZM28.3249 25.3267C28.6674 25.4484 30.5023 26.3238 30.8758 26.5039C30.9498 26.54 31.019 26.5725 31.083 26.6025C31.3421 26.7242 31.5171 26.8065 31.59 26.9275C31.6829 27.0784 31.6829 27.8028 31.3713 28.647C31.0616 29.4912 29.5694 30.2614 28.8533 30.3655C28.2107 30.458 27.3968 30.498 26.5026 30.2224C25.9597 30.0549 25.2649 29.832 24.3745 29.461C20.8811 27.9984 18.5183 24.7193 18.0657 24.0912C18.0332 24.0462 18.0106 24.0147 17.9981 23.9986L17.9951 23.9948C17.7976 23.7394 16.4739 22.0284 16.4739 20.2568C16.4739 18.5929 17.317 17.7204 17.706 17.3178C17.7331 17.2897 17.7581 17.2639 17.7803 17.2403C18.1229 16.8781 18.5284 16.7875 18.7752 16.7875C19.0258 16.7875 19.2736 16.7904 19.4913 16.8002C19.5181 16.8015 19.546 16.8015 19.5749 16.8014C19.7926 16.8007 20.0637 16.7999 20.3303 17.4224C20.446 17.69 20.6208 18.1021 20.7999 18.5245C21.1051 19.244 21.4228 19.9931 21.482 20.1078C21.5758 20.2879 21.6378 20.5002 21.5139 20.7407C21.4937 20.7794 21.4752 20.8157 21.4576 20.8504C21.3651 21.032 21.2964 21.1669 21.1403 21.3444C21.0809 21.4119 21.0194 21.4846 20.9578 21.5574C20.8267 21.7123 20.6949 21.868 20.581 21.9773C20.3942 22.1574 20.1997 22.3531 20.4174 22.7143C20.6352 23.0775 21.3842 24.2615 22.4942 25.2196C23.6861 26.251 24.7229 26.6867 25.2485 26.9075C25.3511 26.9506 25.4342 26.9855 25.4952 27.0151C25.8687 27.1952 26.0865 27.166 26.3052 26.9245C26.522 26.684 27.2381 25.8691 27.4858 25.5069C27.7345 25.1447 27.9832 25.207 28.3249 25.3267Z" fill="#47A3A0"/>
</svg>
